<?xml version="1.0" standalone="no"?>
<!DOCTYPE svg PUBLIC "-//W3C//DTD SVG 1.1//EN" "http://www.w3.org/Graphics/SVG/1.1/DTD/svg11.dtd" >
<svg xmlns="http://www.w3.org/2000/svg">
<metadata>
Created by FontPrep 20130207 at Sun Nov 16 11:54:55 2014
 By David Lapointe Gilbert
Copyright (c) 2013 by Thinkdust. All rights reserved.
</metadata>
<defs>
<font id="6d8e03e5f045c63cf75c19bbdd19ad9d" horiz-adv-x='1024' >
  <font-face 
    font-family="Nanami-Rounded-Bld"
    font-weight="700"
    font-stretch="normal"
    units-per-em="2048"
    panose-1="0 0 0 0 0 0 0 0 0 0"
    ascent="1536"
    descent="-512"
    x-height="1024"
    cap-height="1532"
    bbox="-139 -440 2492 1980"
    underline-thickness="186"
    underline-position="-78"
    unicode-range="U+0020-FB02"
  />
<missing-glyph 
d="M476 59v1414h-358v-1414h358zM59 0v1532h476v-1532h-476z" />
    <glyph glyph-name="fi" unicode="fi" horiz-adv-x="1382" 
d="M994 67v890q-2 69 67 67h179q69 2 67 -67v-890q2 -69 -67 -67h-179q-69 -2 -67 67zM1148 1372q64 0 112 -48t48 -110t-48 -110q-48 -47 -111 -47q-64 1 -110 47t-46 110t46 112q45 46 109 46zM264 1024v90q2 160 81 232t207 73h151q69 2 67 -67v-145q2 -68 -67 -66h-42
q-83 0 -84 -68v-49h196q69 2 67 -67v-151q2 -69 -67 -67h-196v-672q2 -69 -67 -67h-179q-69 -2 -67 67v672h-66q-69 -2 -67 67v151q-2 69 67 67h66z" />
    <glyph glyph-name="fl" unicode="fl" horiz-adv-x="1436" 
d="M1045 67v1281q-2 69 67 67h179q69 2 67 -67v-1281q2 -69 -67 -67h-179q-69 -2 -67 67zM264 1024v90q2 160 81 232t207 73h151q69 2 67 -67v-145q2 -68 -67 -66h-42q-83 0 -84 -68v-49h196q69 2 67 -67v-151q2 -69 -67 -67h-196v-672q2 -69 -67 -67h-179q-69 -2 -67 67
v672h-66q-69 -2 -67 67v151q-2 69 67 67h66z" />
    <glyph glyph-name=".notdef" 
d="M476 59v1414h-358v-1414h358zM59 0v1532h476v-1532h-476z" />
    <glyph glyph-name="glyph1" horiz-adv-x="0" 
 />
    <glyph glyph-name="glyph2" 
 />
    <glyph glyph-name="space" unicode=" " 
 />
    <glyph glyph-name="exclam" unicode="!" horiz-adv-x="463" 
d="M228 307q66 0 112 -46t45 -110q0 -63 -47 -111q-46 -48 -110 -48t-111 48t-47 110q0 64 46 110t112 47zM385 1446v-1049q2 -69 -67 -67h-179q-69 -2 -67 67v1049q-2 69 67 67h179q69 2 67 -67z" />
    <glyph glyph-name="quotedbl" unicode="&#x22;" horiz-adv-x="844" 
d="M100 959v496q-2 60 58 58h152q60 2 58 -58v-496q2 -60 -58 -58h-152q-60 -2 -58 58zM459 959v496q-2 60 58 58h154q60 2 58 -58v-496q2 -60 -58 -58h-154q-60 -2 -58 58z" />
    <glyph glyph-name="numbersign" unicode="#" horiz-adv-x="1442" 
d="M651 806l-25 -176h137l25 176h-137zM671 1448q60 0 60 -47q0 -8 -2 -21l-48 -338h140l49 346q7 61 69 60h106q61 0 61 -47q0 -9 -2 -21l-46 -338h194q69 2 67 -67v-102q2 -69 -67 -67h-229l-24 -176h193q69 2 67 -67v-99q2 -69 -67 -67h-226l-49 -337q-7 -61 -69 -60
h-103q-60 0 -60 51q0 8 1 17l43 329h-138l-49 -337q-7 -61 -69 -60h-104q-61 0 -61 48q0 9 1 20l45 329h-192q-68 -2 -66 67v99q-2 69 66 67h224l27 176h-191q-69 -2 -67 67v102q-2 69 67 67h224l49 346q7 61 69 60h107z" />
    <glyph glyph-name="dollar" unicode="$" horiz-adv-x="1096" 
d="M97 289q0 48 58 58l175 29q20 3 36 3t47 -35t99 -35t104 35q35 35 35 95q0 88 -68 132q-28 18 -118 49q-371 130 -371 464t324 424v121q-2 69 67 67h134q69 2 67 -67v-128q114 -43 174 -116t60 -110t-43 -58l-170 -81q-23 -11 -41 -11q-18 -1 -46 35q-26 36 -84 36
t-86 -40t-28 -78q0 -90 166 -154l26 -10q363 -140 363 -467q0 -192 -123 -325q-65 -70 -168 -114v-121q2 -69 -67 -67h-134q-69 -2 -67 67v111q-255 58 -312 240q-9 29 -9 51z" />
    <glyph glyph-name="percent" unicode="%" horiz-adv-x="1874" 
d="M478 1004q56 0 96 40t40 94t-39 94t-96 40t-96 -39t-39 -95t39 -95t95 -39zM479 762q-155 0 -265 110t-110 264t110 266t264 112q156 0 266 -111t110 -266t-110 -265t-265 -110zM1486 374.5q0 55.5 -39 95.5t-95 40t-96 -40t-40 -95t40 -95t96 -40t95 39q39 40 39 95.5z
M1351 0q-155 0 -265 110t-110 264q0 156 110 266t264 110q156 0 266 -110t110 -265t-110 -265t-265 -110zM469 70q0 14 7 29l713 1392q13 26 27 26t29 -8l85 -42q26 -13 26 -27t-7 -29l-718 -1404q-13 -24 -27 -24t-28 8l-84 52q-23 13 -23 27z" />
    <glyph glyph-name="ampersand" unicode="&#x26;" horiz-adv-x="1481" 
d="M618 1137q0 41 -22 63t-54 23q-32 -1 -55 -23t-23 -64t51 -89q21 -22 25 -19t13 11q65 57 65 98zM362 456q0 -72 50 -122t117 -49q90 0 175 159l-219 205q-123 -80 -123 -193zM1025 1014q23 0 45 -11l154 -76q41 -21 41 -43t-12 -46l-172 -328l271 -249q27 -24 27 -46
t-22 -47l-113 -128q-24 -27 -47 -27t-47 22l-212 194q-141 -245 -403 -245q-200 0 -337 136t-137 330q0 240 233 412q-131 122 -131 282t113 272t269 112t264 -109t108 -262q0 -182 -180 -323l115 -109l129 249q21 40 44 40z" />
    <glyph glyph-name="quotesingle" unicode="'" horiz-adv-x="463" 
d="M94 959v496q-2 60 58 58h152q60 2 58 -58v-496q2 -60 -58 -58h-152q-60 -2 -58 58z" />
    <glyph glyph-name="parenleft" unicode="(" horiz-adv-x="702" 
d="M92 354v717q0 262 172 447q58 63 84 63t52 -27l121 -131q22 -24 21.5 -46t-38.5 -64q-38 -41 -62 -105t-24 -204v-582q0 -115 18 -186t85 -142q22 -24 22 -46t-22 -46l-121 -132q-24 -27 -49 -27q-45 0 -133 117q-126 171 -126 394z" />
    <glyph glyph-name="parenright" unicode=")" horiz-adv-x="702" 
d="M594 1071v-717q0 -259 -171 -448q-57 -63 -84 -63t-52 27l-121 132q-23 24 -23 46q1 22 39 64t62 105t24 205v582q0 114 -18 184t-85 143q-22 23 -22 45t23 47l121 131q25 26 49 26q46 0 133 -120q125 -170 125 -389z" />
    <glyph glyph-name="asterisk" unicode="*" horiz-adv-x="903" 
d="M101 941q-35 0 -35 46v152q0 46 35 46q8 0 23 -5l204 -72l-193 96q-28 14 -28 34t17 36l104 104q16 18 36 18t35 -29l97 -193l-70 206q-5 13 -5 23q0 35 46 35h152q46 0 46 -35q0 -8 -5 -23l-72 -204l96 193q14 28 34 28t36 -17l105 -105q17 -17 17 -37t-29 -34l-195 -96
l208 71q13 4 22 4q36 0 36 -46v-152q0 -46 -35 -46q-9 0 -23 5l-206 72l193 -96q28 -14 28 -34t-17 -36l-102 -102q-16 -18 -36 -18t-35 29l-99 193l72 -208q5 -14 5 -23q0 -35 -46 -35h-152q-46 0 -46 35q0 9 5 23l72 206l-96 -193q-14 -29 -34 -29t-36 17l-104 103
q-18 16 -18 36t29 35l193 99l-206 -72q-14 -5 -23 -5z" />
    <glyph glyph-name="plus" unicode="+" horiz-adv-x="1229" 
d="M467 657v302q-2 69 67 67h136q69 2 67 -67v-302h308q69 2 67 -67v-136q2 -69 -67 -67h-308v-304q2 -69 -67 -67h-136q-69 -2 -67 67v304h-310q-69 -2 -67 67v136q-2 69 67 67h310z" />
    <glyph glyph-name="comma" unicode="," horiz-adv-x="461" 
d="M290 274q45 0 50 -57l25 -289q1 -6 1 -13q0 -45 -52 -51l-88 -10q-13 -1 -19 -1q-34 0 -47 46l-76 267q-5 17 -5 29q0 39 53 50l135 26q13 3 23 3z" />
    <glyph glyph-name="hyphen" unicode="-" horiz-adv-x="879" 
d="M165 719h532q69 2 67 -67v-136q2 -69 -67 -67h-532q-69 -2 -67 67v136q-2 69 67 67z" />
    <glyph glyph-name="period" unicode="." horiz-adv-x="465" 
d="M234 267q60 0 96 -48q35 -47 35 -99q-1 -52 -39 -90t-98 -38t-98 38q-40 38 -40 96q0 57 42 99t102 42z" />
    <glyph glyph-name="slash" unicode="/" horiz-adv-x="735" 
d="M70 38q0 10 4 24l404 1414q13 45 46 45q10 0 24 -3l52 -12q46 -10 46 -44q0 -9 -5 -26l-401 -1402q-13 -45 -50 -45q-8 0 -17 1l-56 7q-47 6 -47 41z" />
    <glyph glyph-name="zero" unicode="0" horiz-adv-x="1229" 
d="M404 1004v-494q0 -80 58 -138t138 -58t138 58t58 138v494q0 78 -58 137q-60 59 -138 59t-137 -59t-59 -137zM1122 1006v-500q0 -210 -155 -366t-367 -156t-367 156t-155 366v500q0 212 154 367t368 155q212 0 367 -155t155 -367z" />
    <glyph glyph-name="one" unicode="1" horiz-adv-x="1229" 
d="M520 1205h-166q-69 -2 -67 67v177q-2 69 67 67h425q69 2 67 -67v-1382q2 -69 -67 -67h-192q-69 -2 -67 67v1138z" />
    <glyph glyph-name="two" unicode="2" horiz-adv-x="1229" 
d="M144 197q0 49 8 69t43 57l425 455q96 102 132 156t36 120q0 148 -153 148q-110 0 -203 -91q-18 -18 -39 -18t-44 24l-124 130q-23 23 -23 51t72 88q168 142 372 142t339 -134q134 -134 134 -328q0 -225 -237 -464l-281 -283h453q69 2 67 -67v-185q2 -69 -67 -67h-844
q-69 -1 -66 67v130z" />
    <glyph glyph-name="three" unicode="3" horiz-adv-x="1229" 
d="M1096 467q0 -201 -139 -341t-367 -140t-404 174q-28 28 -28 48t16 47l98 164q18 31 40 31t62 -37q107 -95 201 -95t146 52t52 124q1 72 -75 130t-163 62l-59 3q-65 2 -64 68v125q-2 61 51 68h4q82 8 144 49t62 99t-33 92q-33 32 -97 32t-150 -66q-15 -13 -37 -13t-40 32
l-84 152q-14 25 -14 45t22 39q151 131 337 131q185 0 299 -114t114 -272q0 -160 -123 -282q229 -154 229 -407z" />
    <glyph glyph-name="four" unicode="4" horiz-adv-x="1229" 
d="M684 236h-535q-69 -2 -67 67v150q0 55 8 85t44 86l525 837q31 51 90 50h196q69 2 67 -67v-887h68q69 2 67 -67v-195q2 -70 -67 -68h-68v-160q2 -69 -67 -67h-194q-69 -2 -67 67v169zM684 543v412l-238 -412h238z" />
    <glyph glyph-name="five" unicode="5" horiz-adv-x="1229" 
d="M584 1059q222 0 379 -157.5t157 -379.5t-157 -380t-379 -158t-381 160q-90 91 -90 130t41 58l175 80q22 11 41 11t44 -31q67 -82 163 -82q97 0 157 60t60 152t-60 152t-156 60t-215 -73q-15 -9 -34 -9t-45 25l-109 107q-36 34 -36 54t5 46l114 571q11 59 71 58h609
q69 2 67 -67v-190q2 -69 -67 -67h-447l-29 -143q57 13 122 13z" />
    <glyph glyph-name="six" unicode="6" horiz-adv-x="1229" 
d="M816 528q0 92 -62 156q-62 62 -155 62t-155 -62t-61 -156q-1 -94 61 -154q62 -62 155 -62t155 62t62 154zM1142 512q0 -210 -158 -370q-158 -158 -384 -158t-384 158t-159 386q0 155 74 273l431 689q24 36 46 36t46 -15l164 -103q35 -22 35 -46t-15 -46l-175 -272
q231 -38 355 -180t124 -352z" />
    <glyph glyph-name="seven" unicode="7" horiz-adv-x="1229" 
d="M1057 1377q0 -57 -10 -96t-50 -132l-469 -1118q-18 -44 -51 -44q-15 0 -36 9l-178 78q-44 19 -44 51q0 13 10 36l433 1030h-439q-69 -2 -67 67v188q-2 69 67 67h767q69 2 67 -67v-69z" />
    <glyph glyph-name="eight" unicode="8" horiz-adv-x="1229" 
d="M712 1090.5q0 47.5 -32 79.5t-79 32t-80 -33t-33 -79t34 -79.5t79 -33.5t78 33t33 80.5zM780 488q0 74 -52 128q-52 52 -128 52t-129 -53t-53 -127t54 -126q54 -54 128 -54t127 53t53 127zM164 1092q0 178 128 306t308 128t308 -128t128 -303q0 -116 -106 -251
q176 -165 176 -365q0 -201 -148 -349t-358 -148t-358 148t-148 341q0 192 174 373q-104 133 -104 248z" />
    <glyph glyph-name="nine" unicode="9" horiz-adv-x="1229" 
d="M600 762q92 0 154 62t62 156q0 92 -62 154t-154 62q-93 0 -155 -62t-62 -154q1 -92 63 -156q62 -62 154 -62zM57 995q-1 211 157 369t386 158t384 -158q158 -158 158 -385q0 -159 -73 -274l-431 -679q-23 -36 -46 -36t-46 15l-164 104q-35 23 -35 46t16 46l173 258
q-234 45 -356 185t-123 351z" />
    <glyph glyph-name="colon" unicode=":" horiz-adv-x="469" 
d="M230 953q59 0 98 -39q39 -40 39 -100q-1 -60 -39 -98t-98 -38t-99 38t-39 98t40 100t98 39zM236 267q60 0 96 -48q35 -47 35 -99q-1 -52 -39 -90t-98 -38t-98 38q-40 38 -40 96q0 57 42 99t102 42z" />
    <glyph glyph-name="semicolon" unicode=";" horiz-adv-x="463" 
d="M290 274q45 0 50 -57l25 -289q1 -6 1 -13q0 -45 -52 -51l-88 -10q-13 -1 -19 -1q-34 0 -47 46l-76 267q-5 17 -5 29q0 39 53 50l135 26q13 3 23 3zM361 818q0 -56 -40 -96q-39 -40 -97 -40t-97 39t-39 97t40 98t96 39q56 0 97 -40q40 -41 40 -97z" />
    <glyph glyph-name="less" unicode="&#x3c;" horiz-adv-x="1372" 
d="M1182 33q0 -44 -33 -44q-9 0 -24 6l-974 404q-47 18 -46 69v99q-1 50 46 69l976 403q14 6 23 6q34 0 34 -44v-114q1 -50 -46 -69l-728 -310l726 -295q47 -18 46 -68v-112z" />
    <glyph glyph-name="equal" unicode="=" horiz-adv-x="1169" 
d="M169 825h806q69 2 67 -67v-136q2 -69 -67 -67h-806q-69 -2 -67 67v136q-2 69 67 67zM169 495h806q69 2 67 -67v-134q2 -69 -67 -67h-806q-69 -2 -67 67v134q-2 69 67 67z" />
    <glyph glyph-name="greater" unicode="&#x3e;" horiz-adv-x="1370" 
d="M103 1001q0 44 33 44q10 0 24 -6l978 -404q47 -18 46 -68v-99q1 -51 -46 -69l-976 -404q-14 -6 -24 -6q-33 0 -33 44v112q-1 50 46 68l726 293l-728 312q-47 19 -46 69v114z" />
    <glyph glyph-name="question" unicode="?" horiz-adv-x="922" 
d="M511 337h-210q-63 0 -75 52q-26 117 -26 219t46 183t154 183q107 102 107 167t-58 65q-66 0 -164 -100q-27 -28 -49 -28t-46 25l-115 116q-25 25 -25 51t74 95q174 163 352 163t277 -112q88 -96 88 -256t-64 -257q-37 -58 -113 -121q-76 -62 -112 -108t-35 -130
q0 -84 31 -162q2 -8 2 -13q0 -32 -39 -32zM243 150q0 62 47 110q48 47 112 47t110 -46t46 -112q0 -65 -48 -111t-109 -46q-62 0 -110 48t-48 110z" />
    <glyph glyph-name="at" unicode="@" horiz-adv-x="1864" 
d="M1054 882q0 44 -35 76t-85 31q-92 -1 -163 -99t-71 -250t118 -152q68 0 122 54t73 134l35 139q6 23 6 67zM1274 1112q49 0 49 -39q0 -8 -3 -20l-116 -463q-10 -36 -10 -45q0 -41 52 -41q104 0 192 122t88 285q0 237 -204 353q-142 80 -333 80q-305 0 -500 -195t-195 -450
t213 -408q172 -123 433 -123t442 112q32 20 52 20t39 -27l18 -25q14 -20 14 -41t-49 -53q-255 -170 -536 -170q-332 0 -563 185q-253 202 -253 534t231 563q262 262 652 262q305 0 517 -169t212 -439t-177 -447q-137 -139 -305 -139t-210 110q-104 -110 -244 -110t-214 82
t-73 230q0 198 118 346t309 147q141 0 202 -95l11 23q21 46 72 45h69z" />
    <glyph glyph-name="A" unicode="A" horiz-adv-x="1536" 
d="M756 948l-146 -361h285zM91 0q-51 0 -51 38q0 11 6 27l564 1414q20 54 78 53h134q57 1 78 -53l565 -1414q6 -16 6 -27q0 -38 -51 -38h-224q-58 -1 -80 52l-98 224h-529l-93 -224q-21 -53 -78 -52h-227z" />
    <glyph glyph-name="B" unicode="B" horiz-adv-x="1169" 
d="M432 952h109q43 0 78 38t35 90t-35 87q-36 35 -89 35h-98v-250zM432 330h141q61 0 109 47t47 119q0 72 -47 118t-109 47h-141v-331zM1059 489q0 -201 -140 -345t-335 -144h-417q-69 -2 -67 67v1398q-2 69 67 67h392q108 0 227 -78q187 -124 187 -352q0 -135 -78 -252
q164 -160 164 -361z" />
    <glyph glyph-name="C" unicode="C" horiz-adv-x="1460" 
d="M1176 1125q-22 0 -54 21q-118 72 -242 72t-232 -66t-166 -167q-56 -100 -56 -219q0 -184 130 -317t322 -133q130 0 245 73q31 20 53 20t46 -31l121 -159q19 -25 19 -49t-39 -50q-202 -136 -445 -136q-325 0 -554 228q-228 228 -228 554t228 554q229 228 556 228
q276 0 461 -149q21 -17 21 -39t-19 -47l-121 -157q-24 -31 -46 -31z" />
    <glyph glyph-name="D" unicode="D" horiz-adv-x="1503" 
d="M434 330h180q194 0 317 122t123 317q0 193 -120 313t-307 120h-193v-872zM614 1532q318 0 544 -226t226 -540t-226 -540t-544 -226h-443q-69 -2 -67 67v1398q-2 69 67 67h443z" />
    <glyph glyph-name="E" unicode="E" horiz-adv-x="1079" 
d="M430 934h465q69 2 67 -67v-196q2 -69 -67 -67h-465v-274h465q69 2 67 -67v-196q2 -69 -67 -67h-728q-69 -2 -67 67v1398q-2 69 67 67h728q69 2 67 -67v-196q2 -69 -67 -67h-465v-268z" />
    <glyph glyph-name="F" unicode="F" horiz-adv-x="1065" 
d="M430 604v-537q2 -69 -67 -67h-196q-69 -2 -67 67v1398q-2 69 67 67h730q69 2 67 -67v-196q2 -69 -67 -67h-467v-268h467q69 2 67 -67v-196q2 -69 -67 -67h-467z" />
    <glyph glyph-name="G" unicode="G" horiz-adv-x="1638" 
d="M1173 527h-271q-69 -2 -67 67v177q-2 69 67 67h545q68 2 67 -66v-356q12 -86 -35 -152q-68 -98 -179 -168q-176 -112 -412 -112q-334 0 -562 228t-228 554t228 554q229 228 556 228q269 0 458 -146q25 -20 25 -42t-19 -48l-122 -156q-24 -31 -46 -31t-53 20
q-116 73 -246 73q-185 0 -317 -132t-132 -318t134 -319t327 -133q194 0 282 111v100z" />
    <glyph glyph-name="H" unicode="H" horiz-adv-x="1343" 
d="M432 604v-537q2 -69 -67 -67h-196q-69 -2 -67 67v1398q-2 69 67 67h196q69 2 67 -67v-531h460v531q-2 69 67 67h196q69 2 67 -67v-1398q2 -69 -67 -67h-196q-69 -2 -67 67v537h-460z" />
    <glyph glyph-name="I" unicode="I" horiz-adv-x="526" 
d="M163 1532h196q69 2 67 -67v-1398q2 -69 -67 -67h-196q-69 -2 -67 67v1398q-2 69 67 67z" />
    <glyph glyph-name="J" unicode="J" horiz-adv-x="965" 
d="M325 373q17 1 42 -29t65 -30t71 30q30 30 30 74v1047q-2 69 67 67h196q69 2 67 -67v-1047q0 -182 -126 -308q-127 -126 -315 -126t-321 156q-32 38 -32 65t37 49l183 107q19 12 36 12z" />
    <glyph glyph-name="K" unicode="K" horiz-adv-x="1194" 
d="M1108 1532q44 0 44 -35q0 -10 -10 -26l-431 -707l439 -704q10 -16 10 -25q0 -35 -44 -35h-257q-59 -1 -87 51l-340 606v-590q2 -69 -67 -67h-196q-69 -2 -67 67v1398q-2 69 67 67h196q69 2 67 -67v-526l339 543q31 51 91 50h246z" />
    <glyph glyph-name="L" unicode="L" horiz-adv-x="1024" 
d="M430 330h430q69 2 67 -67v-196q2 -69 -67 -67h-693q-69 -2 -67 67v1400q-2 69 67 67h196q69 2 67 -67v-1137z" />
    <glyph glyph-name="M" unicode="M" horiz-adv-x="1790" 
d="M880 541l342 938q19 54 77 53h294q69 2 67 -67v-1398q2 -69 -67 -67h-194q-69 -2 -67 67v916l-311 -929q-18 -55 -76 -54h-133q-58 -1 -76 54l-292 820v-807q2 -69 -67 -67h-204q-69 -2 -67 67v1398q-2 69 67 67h288q57 1 76 -53z" />
    <glyph glyph-name="N" unicode="N" horiz-adv-x="1456" 
d="M415 887v-820q2 -69 -67 -67h-179q-69 -2 -67 67v1398q-2 69 67 67h175q61 1 95 -50l581 -835v816q-2 69 67 67h179q69 2 67 -67v-1396q2 -69 -67 -67h-173q-61 -1 -95 50z" />
    <glyph glyph-name="O" unicode="O" horiz-adv-x="1794" 
d="M1333 767q0 187 -131 319q-130 132 -318 132t-321 -132t-133 -318t134 -319t319.5 -133t317.5 132t132 319zM100 766q0 324 228 553t553 229q326 0 555 -228t229 -554t-229 -554t-554 -228t-554 228q-228 230 -228 554z" />
    <glyph glyph-name="P" unicode="P" horiz-adv-x="1139" 
d="M432 915h150q68 0 101 59q23 40 23 98t-38 94t-86 36h-150v-287zM432 583v-516q2 -69 -67 -67h-196q-69 -2 -67 67v1398q-2 69 67 67h413q194 0 324 -131t130 -342t-134 -343t-320 -133h-150z" />
    <glyph glyph-name="Q" unicode="Q" horiz-adv-x="1794" 
d="M1333 763q0 191 -132 323q-133 132 -319 132t-319 -132t-133 -318t134 -319t318 -133q71 0 142 22l-87 87q-19 19 -19 33t14 27l156 151q25 23 48 23t47 -25l88 -91q62 101 62 220zM881 -16q-324 0 -553 228q-228 228 -228 554t228 554q229 228 554 228t554 -228
t229 -553q0 -246 -154 -464l69 -64q25 -23 25 -46t-25 -46l-126 -113q-36 -33 -68 -33t-71 37l-50 48q-190 -102 -384 -102z" />
    <glyph glyph-name="R" unicode="R" horiz-adv-x="1208" 
d="M432 901h170q72 0 106 47t35 110q-1 64 -41 104t-100 40h-170v-301zM1168 34q0 -34 -45 -34h-248q-58 -1 -87 50l-315 548h-41v-531q2 -69 -67 -67h-198q-69 -2 -67 67v1398q-2 69 67 67h435q200 0 336 -137t137 -348q0 -274 -246 -412l330 -573q9 -17 9 -28z" />
    <glyph glyph-name="S" unicode="S" horiz-adv-x="1104" 
d="M340 434q19 0 44 -34q63 -87 152 -87q52 0 88 36t37 97q0 88 -70 132q-28 18 -120 50q-375 133 -375 460q0 204 125 330t320 126t326 -140q67 -72 67 -111t-42 -59l-182 -87q-22 -11 -42 -11t-38 25q-41 51 -93 51q-51 0 -81 -40t-30 -80q0 -91 170 -156l26 -10
q369 -142 369 -475q-1 -207 -131 -337t-311 -130h-17q-236 0 -371 197q-58 87 -58 123t44 55l151 65q23 10 42 10z" />
    <glyph glyph-name="T" unicode="T" horiz-adv-x="1194" 
d="M752 1204v-1137q2 -69 -67 -67h-196q-69 -2 -67 67v1135h-263q-69 -2 -67 67v196q-2 69 67 67h859q69 2 67 -67v-194q2 -69 -67 -67h-266z" />
    <glyph glyph-name="U" unicode="U" horiz-adv-x="1243" 
d="M1126 446q0 -217 -188 -353q-143 -103 -320 -103q-234 0 -392 159q-126 127 -126 297v1017q-2 69 67 67h196q69 2 67 -67v-978q0 -75 62 -119t129 -44t121 44t54 111v986q-2 69 67 67h196q69 2 67 -67v-1017z" />
    <glyph glyph-name="V" unicode="V" horiz-adv-x="1413" 
d="M1293 1532q53 0 53 -39q0 -10 -6 -27l-504 -1412q-19 -55 -76 -54h-134q-58 -1 -76 54l-497 1412q-5 15 -5 26q0 40 52 40h227q58 1 75 -54l290 -890l297 890q17 55 75 54h229z" />
    <glyph glyph-name="W" unicode="W" horiz-adv-x="1913" 
d="M1747 1532q56 0 56 -42q0 -9 -4 -25l-381 -1409q-14 -57 -73 -56h-149q-60 -1 -71 58l-164 800l-205 -802q-14 -57 -72 -56h-147q-59 -1 -72 56l-379 1409q-4 15 -4 24q0 43 55 43h219q59 1 72 -56l183 -724l188 724q14 57 72 56h146q59 1 73 -56l182 -722l183 722
q13 57 72 56h220z" />
    <glyph glyph-name="X" unicode="X" horiz-adv-x="1348" 
d="M1262 1532q43 0 43 -35q0 -11 -9 -26l-440 -707l440 -704q9 -15 9 -25q0 -35 -43 -35h-259q-59 -1 -90 50l-249 405l-255 -405q-31 -51 -91 -50h-253q-43 0 -43 35q0 10 10 26l436 705l-435 707q-9 15 -9 26q0 35 43 35h255q60 1 90 -50l252 -407l249 405q31 51 90 50
h259z" />
    <glyph glyph-name="Y" unicode="Y" horiz-adv-x="1217" 
d="M27 1495q0 37 50 37h237q57 1 78 -53l206 -516l208 514q21 54 78 53h233q50 0 50 -37q0 -11 -7 -28l-396 -912v-486q2 -69 -67 -67h-196q-69 -2 -67 67v486l-400 914q-7 17 -7 28z" />
    <glyph glyph-name="Z" unicode="Z" horiz-adv-x="1200" 
d="M98 169q0 51 8 77q7 26 45 87l537 869h-523q-69 -2 -67 67v196q-2 69 67 67h849q69 2 67 -67v-99q1 -51 -7 -76t-46 -88l-533 -872h519q69 2 67 -67v-196q2 -69 -67 -67h-849q-69 -2 -67 67v102z" />
    <glyph glyph-name="bracketleft" unicode="[" horiz-adv-x="727" 
d="M424 -6h132q68 2 66 -67v-147q2 -69 -66 -67h-391q-69 -2 -67 67v1795q-2 69 67 67h391q68 2 66 -67v-149q2 -69 -66 -67h-132v-1365z" />
    <glyph glyph-name="backslash" unicode="\" horiz-adv-x="737" 
d="M521 -14q-25 0 -34 31l-416 1434q-3 12 -3 20q0 23 31 32l83 25q9 3 18 3q24 0 33 -31l415 -1437q4 -13 4 -20q0 -23 -32 -32l-82 -22q-9 -3 -17 -3z" />
    <glyph glyph-name="bracketright" unicode="]" horiz-adv-x="727" 
d="M295 1359h-130q-69 -2 -67 67v149q-2 69 67 67h387q69 2 67 -67v-1795q2 -69 -67 -67h-387q-69 -2 -67 67v147q-2 69 67 67h130v1365z" />
    <glyph glyph-name="asciicircum" unicode="^" horiz-adv-x="1147" 
d="M86 690q-46 0 -46 35q0 11 9 27l390 710q28 52 86 51h71q58 1 85 -51l391 -710q9 -16 9 -27q0 -35 -46 -35h-160q-58 -1 -85 51l-229 414l-226 -414q-27 -52 -85 -51h-164z" />
    <glyph glyph-name="underscore" unicode="_" horiz-adv-x="1372" 
d="M61 -78h1222q69 2 67 -67v-52q2 -69 -67 -67h-1222q-69 -2 -67 67v52q-2 69 67 67z" />
    <glyph glyph-name="grave" unicode="`" horiz-adv-x="694" 
d="M582 1366q0 -20 -11 -38l-86 -137q-21 -32 -39 -32t-37 8l-274 111q-39 16 -39 44q0 13 9 32l66 146q17 38 45 38q13 0 32 -8l299 -128q35 -16 35 -36z" />
    <glyph glyph-name="a" unicode="a" horiz-adv-x="1202" 
d="M354 512q0 -93 62 -156t153 -63q91 1 153 63t63 156q-1 94 -63 156q-62 63 -153 63t-153 -63t-62 -156zM568 -16q-218 0 -372 156t-154 372t154 372t373 156q126 0 241 -59q3 44 52 43h169q69 2 67 -67v-900q1 -69 -67 -67h-132q-66 -3 -67 58v7q-126 -71 -264 -71z" />
    <glyph glyph-name="b" unicode="b" horiz-adv-x="1233" 
d="M830 512q0 92 -64 156t-154 63q-91 0 -154 -63t-63 -156t63.5 -156t153.5 -63t154 63.5t64 155.5zM613 1040q216 0 372 -156t156 -372t-156 -372t-371 -156q-133 0 -268 69v-3q-2 -59 -67 -56h-132q-69 -2 -67 67v1289q-2 69 67 67h179q69 2 67 -67v-359q110 49 220 49z
" />
    <glyph glyph-name="c" unicode="c" horiz-adv-x="1126" 
d="M852 653q-26 -19 -45 -19t-45 21q-85 72 -173 72q-89 -1 -151 -63t-62 -151t62 -152q64 -62 152 -62t160 78q37 40 56 40t42 -12l159 -79q40 -20 40 -51t-61 -100q-166 -191 -393 -191t-381 154t-155 374q0 220 154 374q155 154 373 154t387 -174q41 -42 41 -68t-32 -50z
" />
    <glyph glyph-name="d" unicode="d" horiz-adv-x="1241" 
d="M607 731q-91 0 -155 -63t-64 -156t64 -156t155 -63t154 63t63 156t-63 156t-154 63zM606 -16q-216 0 -372 156t-156 372t156 372t372 156q110 0 220 -49v357q-2 69 67 67h179q69 2 67 -67v-1287q2 -69 -67 -67h-134q-65 -3 -67 56v3q-131 -69 -265 -69z" />
    <glyph glyph-name="e" unicode="e" horiz-adv-x="1092" 
d="M565 740q-126 0 -174 -98h320q-20 98 -146 98zM599 278q100 0 209 43q20 8 31 8q35 0 53 -44l53 -129q10 -22 10 -44t-38 -44q-147 -85 -330 -85q-234 0 -389 154.5t-155 374.5t154 373t377 153t350 -174q102 -141 102 -338q0 -45 -4 -71q-7 -49 -68 -49h-565
q44 -128 210 -128z" />
    <glyph glyph-name="f" unicode="f" horiz-adv-x="834" 
d="M180 1024v90q2 160 81 232t207 73h151q69 2 67 -67v-145q2 -68 -67 -66h-42q-83 0 -84 -68v-49h196q69 2 67 -67v-151q2 -69 -67 -67h-196v-672q2 -69 -67 -67h-179q-69 -2 -67 67v672h-66q-69 -2 -67 67v151q-2 69 67 67h66z" />
    <glyph glyph-name="g" unicode="g" horiz-adv-x="1245" 
d="M824 512q0 93 -62 156t-154 63q-90 0 -154 -63t-64 -156t64 -156t154 -63t153 63t63 156zM1139 127q0 -234 -165 -401q-166 -166 -396 -166q-158 0 -302 93q-60 39 -60 66t22 52l106 114q25 27 45 27t72 -32t139 -33q87 0 159 76q38 40 61 106q-114 -45 -214 -45
q-215 0 -371 156t-156.5 372t155.5 372t373 156q133 0 264 -69v3q2 59 67 56h134q69 2 67 -67v-836z" />
    <glyph glyph-name="h" unicode="h" horiz-adv-x="1096" 
d="M540 1040q228 0 342 -126t113 -330v-517q2 -69 -67 -67h-179q-69 -2 -67 67v513q0 61 -43 104t-103 43t-104 -43t-43 -104v-513q2 -69 -67 -67h-175q-69 -2 -67 67v1283q-2 69 67 67h177q69 2 67 -67v-334q73 24 149 24z" />
    <glyph glyph-name="i" unicode="i" horiz-adv-x="463" 
d="M72 67v890q-2 69 67 67h179q69 2 67 -67v-890q2 -69 -67 -67h-179q-69 -2 -67 67zM228 1372q64 0 111 -48q48 -48 48 -110t-47.5 -109.5t-111.5 -47.5q-64 1 -110 47t-46 110t46 111t110 47z" />
    <glyph glyph-name="j" unicode="j" horiz-adv-x="463" 
d="M226 1371q62 1 111 -47q48 -48 48 -110t-47 -110q-46 -47 -110 -47q-64 1 -110 47t-47 110q1 64 47 110t108 47zM71 -70v1027q-2 69 67 67h179q69 2 67 -67v-1088q0 -116 -66 -183t-169 -67h-112q-68 -2 -66 67v178q-2 68 66 66h34z" />
    <glyph glyph-name="k" unicode="k" horiz-adv-x="958" 
d="M885 1024q43 0 43 -35q0 -10 -10 -25l-281 -450l287 -454q10 -16 10 -25q0 -35 -43 -35h-222q-56 -1 -81 36l-197 314v-283q2 -69 -67 -67h-179q-69 -2 -67 67v1382q-2 69 67 67h179q69 2 67 -67v-777l190 302q31 51 90 50h214z" />
    <glyph glyph-name="l" unicode="l" horiz-adv-x="463" 
d="M72 67v1281q-2 69 67 67h179q69 2 67 -67v-1281q2 -69 -67 -67h-179q-69 -2 -67 67z" />
    <glyph glyph-name="m" unicode="m" horiz-adv-x="1729" 
d="M1152 1040q229 0 350 -135q106 -117 106 -321v-517q2 -69 -67 -67h-177q-69 -2 -67 67v513q0 61 -44.5 104t-102.5 43q-58 -1 -102 -41t-45 -96v-523q2 -69 -67 -67h-179q-69 -2 -67 67v513q0 61 -43 104t-102 43t-103 -41t-45 -96v-523q2 -69 -67 -67h-179
q-69 -2 -67 67v894q-2 69 67 67h139q44 1 48 -39q85 51 207 51q170 0 300 -90q136 90 307 90z" />
    <glyph glyph-name="n" unicode="n" horiz-adv-x="1092" 
d="M541 1040q227 0 341 -126t114 -330v-517q2 -69 -67 -67h-179q-69 -2 -67 67v513q0 61 -43 104t-102 43t-104 -41t-45 -96v-523q2 -69 -67 -67h-177q-69 -2 -67 67v894q-2 69 67 67h139q44 1 48 -39q82 51 209 51z" />
    <glyph glyph-name="o" unicode="o" horiz-adv-x="1192" 
d="M586 299q90 1 152 63t63 150q-1 88 -63 152q-62 63 -152 63q-90 -1 -152 -63t-62 -151t62 -152q62 -62 152 -62zM1114 512q0 -220 -154 -374t-374 -154q-218 0 -372 154t-155 374q0 220 153 374q154 154 374 154t374 -154t154 -374z" />
    <glyph glyph-name="p" unicode="p" horiz-adv-x="1231" 
d="M830 512q0 92 -64 156t-154 63q-91 0 -154 -63t-63 -156t63.5 -156t153.5 -63t154 63.5t64 155.5zM614 1040q215 0 371 -156t156 -372t-156 -372t-372 -156q-110 0 -220 49v-367q2 -69 -67 -67h-179q-69 -2 -67 67v1297q-2 69 67 67h132q65 3 67 -56v-3q135 69 268 69z
" />
    <glyph glyph-name="q" unicode="q" horiz-adv-x="1241" 
d="M607 731q-91 0 -155 -63t-64 -156t64 -156t155 -63t154 63t63 156t-63 156t-154 63zM606 -16q-216 0 -372 156t-156 372t156 372t372 156q134 0 265 -69v3q2 59 67 56h134q69 2 67 -67v-1297q2 -69 -67 -67h-179q-69 -2 -67 67v367q-110 -49 -220 -49z" />
    <glyph glyph-name="r" unicode="r" horiz-adv-x="758" 
d="M533 725q-65 0 -105 -40t-41 -93v-525q2 -69 -67 -67h-179q-69 -2 -67 67v894q-2 69 67 67h139q44 1 48 -39q77 50 205 51h95q69 2 67 -66v-182q2 -69 -67 -67h-95z" />
    <glyph glyph-name="s" unicode="s" horiz-adv-x="735" 
d="M244 347q12 0 40 -31t60 -31q33 0 33 35q0 54 -102 103t-150 100q-72 75 -72 211t86 222t225 85q139 0 234 -131q49 -66 49 -99t-41 -55l-109 -58q-20 -11 -39 -11q-20 -1 -38 27t-46 28t-28 -30q0 -38 92 -85q232 -117 232 -327q0 -136 -90 -226t-217 -90
q-155 0 -266 139q-44 55 -44 85t38 54l125 76q16 9 28 9z" />
    <glyph glyph-name="t" unicode="t" horiz-adv-x="885" 
d="M284 1024v214q-2 69 67 67h177q69 2 67 -67v-214h159q69 2 67 -67v-151q2 -69 -67 -67h-159v-672q2 -69 -67 -67h-177q-69 -2 -67 67v672h-164q-69 -2 -67 67v151q-2 69 67 67h164z" />
    <glyph glyph-name="u" unicode="u" horiz-adv-x="1096" 
d="M533 -16q-227 0 -341 126t-114 330v517q-2 69 67 67h177q69 2 67 -67v-513q0 -61 44.5 -104t102.5 -43q58 1 102 41t45 96v523q-2 69 67 67h179q69 2 67 -67v-896q2 -69 -67 -67h-137q-46 -1 -50 41q-84 -51 -209 -51z" />
    <glyph glyph-name="v" unicode="v" horiz-adv-x="979" 
d="M885 1024q52 0 52 -40q0 -11 -5 -26l-315 -904q-18 -55 -76 -54h-123q-58 -1 -76 54l-314 904q-6 16 -6 26q0 40 53 40h206q58 1 74 -55l125 -424l123 424q15 56 74 55h208z" />
    <glyph glyph-name="w" unicode="w" horiz-adv-x="1477" 
d="M1358 1024q55 0 55 -42q0 -10 -4 -25l-241 -901q-14 -57 -73 -56h-145q-58 -1 -77 54l-157 442l-151 -442q-18 -55 -76 -54h-147q-59 -1 -73 56l-243 901q-4 15 -4 25q0 42 55 42h202q59 1 72 -57l107 -451l124 450q15 57 73 56h129q58 1 74 -55l129 -439l99 439
q12 58 72 57h200z" />
    <glyph glyph-name="x" unicode="x" horiz-adv-x="1055" 
d="M945 1024q43 0 43 -35q0 -11 -9 -26l-280 -451l289 -452q10 -16 10 -26q0 -34 -43 -34h-250q-58 -1 -84 51l-106 203l-105 -203q-26 -52 -84 -51h-248q-43 0 -43 33q0 12 10 27l287 452l-281 452q-10 15 -10 25q0 35 43 35h242q58 1 84 -51l105 -201l104 201q26 52 84 51
h242z" />
    <glyph glyph-name="y" unicode="y" horiz-adv-x="977" 
d="M879 1024q52 0 52 -41q0 -11 -5 -25l-444 -1310q-18 -55 -76 -54h-204q-53 0 -53 40q0 10 6 26l159 454v19l-287 825q-5 16 -5 26q0 40 53 40h208q58 1 74 -55l123 -424l123 424q15 56 74 55h202z" />
    <glyph glyph-name="z" unicode="z" horiz-adv-x="874" 
d="M794 873q0 -51 -10 -76t-41 -70l-289 -416h273q69 2 67 -67v-177q2 -69 -67 -67h-595q-69 -2 -67 67v98q1 53 11 79t40 68l283 403h-267q-69 -2 -67 67v175q-2 69 67 67h595q69 2 67 -67v-84z" />
    <glyph glyph-name="braceleft" unicode="{" horiz-adv-x="793" 
d="M687 -221q0 -66 -63 -66q-195 -1 -265 79t-70 292v248q0 200 -147 234q-48 11 -46 67v112q-1 54 46 66q86 25 116 79t31 154v248q0 164 30 231q63 140 305 140q63 0 63 -66v-83q8 -27 -9 -43q-18 -15 -58 -31t-59 -50t-20 -130v-252q1 -136 -35 -209t-129 -111
q82 -36 122 -100t42 -221v-250q1 -93 21 -132q22 -36 90 -60q16 -6 26 -20q15 -22 9 -42v-84z" />
    <glyph glyph-name="bar" unicode="|" horiz-adv-x="467" 
d="M364 1446v-1379q2 -69 -67 -67h-134q-69 -2 -67 67v1379q-2 69 67 67h134q69 2 67 -67z" />
    <glyph glyph-name="braceright" unicode="}" horiz-adv-x="803" 
d="M97 1597q0 66 62 66q195 1 265 -79t70 -292v-248q2 -100 32 -154t114 -79q48 -12 46 -66v-112q2 -56 -46 -67q-146 -34 -146 -234v-248q0 -164 -30 -231q-63 -140 -305 -140q-64 0 -64 66v81q0 30 11 45q10 15 54 31t61 48q20 32 21 133v250q0 135 34 207t128 114
q-80 34 -120 97t-42 223v252q-1 93 -21 132q-21 34 -89 59q-36 17 -35 64v82z" />
    <glyph glyph-name="asciitilde" unicode="~" horiz-adv-x="1290" 
d="M98 388v169q0 55 42 72q139 59 249 59q109 0 259 -37t176 -37q101 0 278 67q12 4 20 4q40 0 40 -49v-125q0 -64 -36 -87q-36 -24 -123 -52t-169 -28t-206 38t-218 38q-93 0 -232 -63q-34 -15 -45 -15q-35 0 -35 46z" />
    <glyph glyph-name="uni00A0" unicode="&#xa0;" 
 />
    <glyph glyph-name="exclamdown" unicode="&#xa1;" horiz-adv-x="463" 
d="M228 1536q64 0 110 -48q47 -48 47 -111q0 -64 -46 -110t-111 -46q-66 1 -112 47t-46 110t47 110q47 48 111 48zM385 1131v-1050q2 -69 -67 -67h-179q-69 -2 -67 67v1050q-2 69 67 67h179q69 2 67 -67z" />
    <glyph glyph-name="cent" unicode="&#xa2;" horiz-adv-x="1153" 
d="M348 513q0 -109 80 -181v364q-80 -74 -80 -183zM1011 802q0 -30 -33 -54l-121 -85q-24 -17 -45 -17q-20 0 -52 32t-64 51v-430q51 26 81 66t50 40t42 -11l138 -69q40 -19 40 -59t-104 -137q-104 -96 -247 -133v-95q2 -69 -67 -67h-134q-69 -2 -67 67v105
q-141 56 -230 155q-141 159 -141 367t153 361q83 83 218 127v125q-2 69 67 67h134q69 2 67 -67v-115q149 -38 256 -139q59 -55 59 -85z" />
    <glyph glyph-name="sterling" unicode="&#xa3;" horiz-adv-x="1327" 
d="M749 330q137 0 148 103q5 61 68 59h167q65 0 65 -56q1 -92 -61 -198t-176 -172t-262 -66h-445q-69 -2 -67 67v194q-2 69 67 67h74q69 0 68 82v8q1 38 -41 110t-78 119h-107q-69 -2 -67 67v147q-2 69 66 67h22q-12 66 -12 112q0 208 140 348t338 140t335 -104
q43 -32 43 -58t-26 -49l-146 -131q-24 -22 -42 -22t-52 18t-102 18q-70 0 -115 -46t-45 -100t32 -126h343q69 2 67 -67v-147q2 -69 -67 -67h-226q68 -120 68 -229q0 -55 -15 -88h41z" />
    <glyph glyph-name="currency" unicode="&#xa4;" horiz-adv-x="1444" 
d="M706 439q102 -1 176 73t74 178t-74 180q-74 74 -175 74q-102 0 -177 -75t-75 -178t74 -178q75 -74 177 -74zM246 106q-20 0 -42 21l-67 67q-21 22 -21 42t21 41l149 151q-77 128 -77 254t82 268l-157 154q-22 21 -22 41t21 41l71 71q22 21 42 21t41 -21l155 -157
q155 82 270 82t254 -80l154 153q22 22 42 22t40 -21l69 -68q21 -21 21 -41t-21 -41l-151 -150q82 -140 82 -265t-78 -263l151 -151q22 -21 22 -41t-22 -42l-67 -67q-21 -21 -41 -21t-41 21l-149 149q-139 -83 -267 -83t-274 83l-149 -149q-21 -21 -41 -21z" />
    <glyph glyph-name="yen" unicode="&#xa5;" horiz-adv-x="1360" 
d="M832 545v-478q2 -69 -67 -67h-194q-69 -2 -67 67v478h-341q-69 -2 -67 67v71q-2 69 67 67h251l-60 137h-191q-69 -2 -67 67v71q-2 69 67 67h101l-153 356q-7 18 -7 28q0 37 50 37h231q58 1 79 -53l202 -509l204 507q21 54 78 53h229q49 0 49 -38q0 -11 -7 -27l-152 -354
h101q69 2 67 -67v-71q2 -69 -67 -67h-189l-61 -137h250q69 2 67 -67v-71q2 -69 -67 -67h-336z" />
    <glyph glyph-name="brokenbar" unicode="&#xa6;" horiz-adv-x="465" 
d="M96 956v530q-2 68 67 66h134q69 2 67 -66v-530q2 -69 -67 -67h-134q-69 -2 -67 67zM96 46v524q-2 69 67 67h134q69 2 67 -67v-524q2 -68 -67 -66h-134q-69 -2 -67 66z" />
    <glyph glyph-name="section" unicode="&#xa7;" horiz-adv-x="1317" 
d="M438 622q0 -66 86 -102l237 -100q76 50 76 113q0 76 -129 129l-203 81q-67 -55 -67 -121zM180 1136q0 193 150 302q124 90 312 90t325 -112q38 -31 38 -97v-238q0 -31 -26 -31q-11 0 -43 32t-112 86t-142 55q-62 0 -100 -30t-38 -68t32 -70q32 -31 202 -93
q169 -62 268 -134q143 -103 143 -258q0 -193 -198 -347q75 -113 75 -203q0 -186 -150 -294q-119 -87 -292 -87q-298 0 -451 230q-62 93 -62 135t55 43h236q52 1 79 -36q52 -67 109 -67q56 0 90 26t34 62q0 35 -28 64q-28 30 -185 90q-158 60 -240 113q-163 106 -163 308
q0 121 59 212q34 53 107 115q-84 99 -84 202z" />
    <glyph glyph-name="dieresis" unicode="&#xa8;" horiz-adv-x="928" 
d="M251 1204q-67 0 -111 44t-44 110t44 111t111 45t111 -45t44 -111t-44 -110t-111 -44zM808 1358q0 -66 -44 -110t-111 -44t-111 44t-43 110q0 66 44 110q43 44 109 45q66 0 111 -45t45 -110z" />
    <glyph glyph-name="copyright" unicode="&#xa9;" horiz-adv-x="1710" 
d="M838 150q242 0 414 172t171 404q-1 234 -171 406t-413 172t-412 -169t-169 -408t169 -408t411 -169zM1566 726q0 -306 -214 -518t-515 -212t-517 215t-216 515t214 518q214 216 518 216t517 -214t213 -520zM1093 440q0 -22 -33 -43q-90 -57 -212 -57q-166 0 -280 114
t-114 276t114 274q114 114 278 114q120 0 215 -59q32 -20 32 -41t-18 -43l-52 -64q-20 -25 -37 -25t-49 16t-101 15t-125 -57t-56 -132q1 -76 57 -132t124 -57q68 0 123 28q10 5 27 5t38 -25l51 -64q18 -21 18 -43z" />
    <glyph glyph-name="ordfeminine" unicode="&#xaa;" horiz-adv-x="860" 
d="M554 1101.5q0 59.5 -40 99.5t-99 40t-99 -39.5t-40 -99.5t40 -100t99 -40t99 40t40 99.5zM415 741q-149 0 -256 106q-106 107 -106 255t106 255q107 107 255 107q77 0 155 -35q3 37 43 35h110q60 2 58 -58v-600q0 -50 -39 -50q-8 0 -20 3l-127 29q-89 -47 -179 -47z" />
    <glyph glyph-name="guillemotleft" unicode="&#xab;" horiz-adv-x="1067" 
d="M557 286q0 -22 -29 -45l-107 -91q-23 -19 -45 -19t-45 33l-224 347q-19 29 -19 49t18 47l214 340q22 34 45 34t46 -17l119 -84q33 -24 33 -46t-17 -46l-155 -229l150 -227q16 -24 16 -46zM944 286q0 -22 -29 -45l-107 -91q-24 -19 -46 -19t-43 33l-225 347q-19 29 -19 49
t18 47l214 340q22 34 45 34t46 -17l119 -84q33 -24 33 -46t-16 -46l-156 -229l150 -227q16 -24 16 -46z" />
    <glyph glyph-name="logicalnot" unicode="&#xac;" horiz-adv-x="1290" 
d="M891 596h-736q-69 -2 -67 67v136q-2 69 67 67h937q69 2 67 -67v-580q2 -69 -67 -67h-134q-69 -2 -67 67v377z" />
    <glyph glyph-name="uni00AD" unicode="&#xad;" horiz-adv-x="879" 
d="M165 719h532q69 2 67 -67v-136q2 -69 -67 -67h-532q-69 -2 -67 67v136q-2 69 67 67z" />
    <glyph glyph-name="registered" unicode="&#xae;" horiz-adv-x="1792" 
d="M1496 756q0 246 -182 429t-436 183q-256 0 -435 -180t-179 -432t179 -431t433 -179t438 182q182 182 182 428zM104 754q0 314 226 544t546 230q318 0 544 -226t226 -546t-226 -546t-543 -226t-545 228t-228 542zM817 821h82q40 0 63 32t23 76q0 103 -86 103h-82v-211z
M1196 325q0 -30 -38 -30h-114q-39 0 -59 19q-22 28 -168 282v-243q1 -60 -59 -58h-79q-61 -2 -59 58v803q-2 60 59 58h226q125 0 203 -78t78 -209q0 -218 -187 -268l189 -311q8 -13 8 -23z" />
    <glyph glyph-name="macron" unicode="&#xaf;" horiz-adv-x="877" 
d="M156 1473h545q61 2 59 -58v-152q2 -59 -59 -58h-545q-60 -2 -58 58v152q-2 60 58 58z" />
    <glyph glyph-name="degree" unicode="&#xb0;" horiz-adv-x="885" 
d="M432 1282q-66 0 -112 -46t-46 -112t46 -114q46 -46 112 -46t112 46t46 114q0 66 -46 112t-112 46zM94 1123q0 139 98 239t240 100t240 -99t98 -239t-98 -240q-99 -98 -240 -98t-240 98q-98 99 -98 239z" />
    <glyph glyph-name="plusminus" unicode="&#xb1;" horiz-adv-x="1307" 
d="M165 280h949q69 2 67 -67v-134q2 -69 -67 -67h-949q-69 -2 -67 67v134q-2 69 67 67zM506 811v173q-2 69 67 67h136q69 2 67 -67v-173h338q69 2 67 -67v-136q2 -69 -67 -67h-338v-173q2 -69 -67 -67h-136q-69 -2 -67 67v173h-341q-69 -2 -67 67v136q-2 69 67 67h341z" />
    <glyph glyph-name="twosuperior" unicode="&#xb2;" horiz-adv-x="735" 
d="M98 766q0 1 -1 4q-4 53 42 93l308 282q35 33 35 73t-28 68t-67 27q-40 0 -82 -57q-15 -19 -31 -19t-34 6l-93 33q-41 15 -41 53q0 39 83 119t206 80t213 -90t91 -220q0 -64 -30 -128t-83 -106l-234 -183h290q60 2 59 -58v-99q1 -60 -59 -58h-485q-60 -2 -59 58v122z" />
    <glyph glyph-name="threesuperior" unicode="&#xb3;" horiz-adv-x="733" 
d="M668 900q0 -142 -92 -233t-220 -91q-130 0 -213 84t-83 165q0 44 52 51l91 11q10 1 18 1q28 0 54 -48q27 -48 77 -49t76 35t25 76q0 40 -28 72t-64 42l-50 13q-50 13 -49 64v62q-1 52 50 64l42 10q27 6 27 48t-40 42t-94 -54q-13 -14 -33 -14t-34 29l-35 68
q-13 28 -13 48t24 48q70 86 178 86t180 -72t72 -159q0 -88 -49 -156q131 -101 131 -243z" />
    <glyph glyph-name="acute" unicode="&#xb4;" horiz-adv-x="694" 
d="M466 1538q28 0 45 -38l65 -146q9 -20 9 -32q0 -28 -39 -44l-274 -111q-20 -8 -38 -8t-39 32l-85 137q-12 19 -12 39t35 35l302 128q19 8 31 8z" />
    <glyph glyph-name="mu" unicode="&#xb5;" horiz-adv-x="1192" 
d="M430 477q0 -69 44 -113t114 -44t115 44q44 44 44 113v554q-2 69 67 67h192q69 2 67 -67v-975q0 -49 -38 -49q-11 0 -27 7l-230 101q-66 -123 -191 -123q-82 0 -157 49v-400q2 -69 -67 -67h-192q-69 -2 -67 67v1390q-2 69 67 67h192q69 2 67 -67v-554z" />
    <glyph glyph-name="paragraph" unicode="&#xb6;" horiz-adv-x="1339" 
d="M798 1168v-1515q2 -69 -67 -67h-136q-69 -2 -67 67v1056q-434 35 -434 370q0 205 152 292q118 67 352 67h541q69 2 67 -67v-1718q2 -69 -67 -67h-136q-69 -2 -67 67v1515h-138z" />
    <glyph glyph-name="periodcentered" unicode="&#xb7;" horiz-adv-x="465" 
d="M234 900q60 0 96 -48q35 -48 35 -99q-1 -52 -39 -90t-98 -38q-60 1 -99 39t-39 95t42 99t102 42z" />
    <glyph glyph-name="cedilla" unicode="&#xb8;" horiz-adv-x="631" 
d="M526 -217q0 -101 -74 -155t-166 -54q-90 0 -164 31q-28 12 -28 50v89q0 33 26 33q7 0 47 -13t74 -13h19q33 1 33 31t-43 30h-113q-26 0 -26 21q0 5 7 15l144 199h176l-72 -94q160 -18 160 -170z" />
    <glyph glyph-name="onesuperior" unicode="&#xb9;" horiz-adv-x="494" 
d="M77 1306h-83q-60 -2 -58 59v89q-2 61 58 59h240q60 2 58 -59v-810q1 -60 -58 -58h-99q-59 -2 -58 58v662z" />
    <glyph glyph-name="ordmasculine" unicode="&#xba;" horiz-adv-x="848" 
d="M553.5 1098.5q0.5 56.5 -39.5 96.5t-96 40t-98 -40q-40 -40 -40 -96t40 -97q41 -40 97 -40t96 40t40.5 96.5zM416 1460q154 0 258 -104t104 -258q0 -152 -104 -256t-258 -105q-152 0 -257 104q-104 105 -104 257t103.5 257t257.5 105z" />
    <glyph glyph-name="guillemotright" unicode="&#xbb;" horiz-adv-x="1067" 
d="M96 826q0 20 29 45l108 91q23 19 45 19t44 -33l225 -345q18 -28 18 -48t-18 -48l-214 -341q-23 -35 -45 -35t-45 17l-119 86q-32 24 -32 46t16 46l154 229l-150 225q-16 26 -16 46zM483 826q0 20 29 45l108 91q24 19 46 19t43 -33l225 -345q18 -28 18 -48t-18 -48
l-214 -341q-22 -35 -44 -35t-46 17l-120 86q-33 24 -33 46t17 46l155 229l-150 225q-16 26 -16 46z" />
    <glyph glyph-name="onequarter" unicode="&#xbc;" horiz-adv-x="1683" 
d="M232 1294h-91q-60 -1 -59 58v103q-2 60 59 58h262q60 2 58 -58v-887q2 -60 -58 -58h-113q-59 -2 -58 58v726zM472 29q0 7 3 16l413 1447q9 31 35 31q7 0 15 -2l84 -19q32 -7 32 -32q0 -8 -3 -17l-410 -1433q-9 -33 -33 -33q-6 0 -15 1l-88 11q-33 4 -33 30zM1244 369v227
l-133 -227h133zM1244 154h-333q-60 -2 -59 58v84q0 70 46 140l327 519q27 45 79 44h109q60 2 58 -58v-562h32q60 2 58 -58v-115q2 -60 -58 -58h-32v-89q1 -61 -58 -59h-111q-59 -2 -58 59v95z" />
    <glyph glyph-name="onehalf" unicode="&#xbd;" horiz-adv-x="1712" 
d="M959 191q0 59 43 98l328 303q39 36 39 79t-29.5 73t-75.5 30t-90 -62q-15 -20 -31 -20t-34 6l-101 36q-41 14 -41 46t51 94q106 125 246 125t236 -96t96 -233q0 -84 -40 -150t-82 -98l-251 -195h316q61 2 59 -58v-111q2 -60 -59 -58h-522q-60 -2 -58 58v133zM472 25
q0 7 3 16l414 1453q9 33 35 33q6 0 12 -1l84 -8q34 -4 34 -29q0 -7 -3 -17l-410 -1452q-9 -33 -38 -33h-9l-88 9q-34 3 -34 29zM234 1294h-93q-60 -1 -59 58v103q-2 60 59 58h262q60 2 58 -58v-887q2 -60 -58 -58h-111q-60 -2 -58 58v726z" />
    <glyph glyph-name="threequarters" unicode="&#xbe;" horiz-adv-x="1884" 
d="M633 28q0 6 3 17l414 1447q9 31 35 31q7 0 15 -2l84 -19q32 -7 32 -31q0 -8 -3 -18l-410 -1433q-10 -33 -34 -33q-5 0 -14 1l-88 11q-34 4 -34 29zM721 840q0 -150 -98 -248t-236.5 -98t-226.5 90t-88 178q0 44 52 51l104 14q9 1 18 1q33 0 44 -31q28 -74 99 -74
q47 1 75 39t28 80q0 95 -99 125l-54 16q-49 14 -48 65v69q-1 51 49 63l47 12q31 8 31 54t-44 47q-44 0 -108 -63q-16 -15 -32 -15t-27 23l-42 87q-13 29 -13 49t25 50q77 92 189 92t188 -76t77 -185q0 -73 -51 -153q141 -113 141 -262zM1405 369v227l-133 -227h133z
M1405 154h-333q-60 -2 -58 58v84q0 70 46 140l326 519q27 45 79 44h109q60 2 58 -58v-562h32q60 2 58 -58v-115q2 -60 -58 -58h-32v-89q1 -61 -58 -59h-111q-59 -2 -58 59v95z" />
    <glyph glyph-name="questiondown" unicode="&#xbf;" horiz-adv-x="922" 
d="M389 1207h211q62 0 74 -52q26 -117 26 -219t-46 -183t-154 -183q-107 -102 -107 -167t58 -65q66 0 164 101q27 27 49 27t46 -24l116 -117q24 -24 24 -50t-74 -96q-173 -163 -351 -163t-272 104t-94 264t64 257q38 57 114 121t111 109t35 116t-12 111l-18 64q-2 8 -2 13
q0 32 38 32zM342 1394q0 66 47 112t109 46t110.5 -48t48.5 -111q1 -63 -47 -109t-112 -47q-64 0 -110 45.5t-46 111.5z" />
    <glyph glyph-name="Agrave" unicode="&#xc0;" horiz-adv-x="1536" 
d="M1002 1776q0 -20 -12 -39l-86 -136q-20 -33 -38 -33t-38 8l-274 112q-39 16 -39 44q0 12 9 32l67 146q17 38 44 38q12 0 32 -8l300 -128q35 -16 35 -36zM756 948l-146 -361h285zM91 0q-51 0 -51 38q0 11 6 27l564 1414q20 54 78 53h134q57 1 78 -53l565 -1414
q6 -16 6 -27q0 -38 -51 -38h-224q-58 -1 -80 52l-98 224h-529l-93 -224q-21 -53 -78 -52h-227z" />
    <glyph glyph-name="Aacute" unicode="&#xc1;" horiz-adv-x="1536" 
d="M886 1948q27 0 45 -38l65 -146q8 -19 8 -32q0 -28 -39 -44l-274 -112q-19 -8 -37 -8t-39 33l-86 136q-11 19 -11 39t35 36l301 128q20 8 32 8zM756 948l-146 -361h285zM91 0q-51 0 -51 38q0 11 6 27l564 1414q20 54 78 53h134q57 1 78 -53l565 -1414q6 -16 6 -27
q0 -38 -51 -38h-224q-58 -1 -80 52l-98 224h-529l-93 -224q-21 -53 -78 -52h-227z" />
    <glyph glyph-name="Acircumflex" unicode="&#xc2;" horiz-adv-x="1536" 
d="M586 1606q-18 0 -39 33l-88 135q-12 18 -12 33q0 26 35 39l215 83q37 15 57 15t59 -16l221 -92q34 -16 34 -36t-12 -38l-91 -135q-21 -32 -39 -32t-38 9l-134 59l-131 -49q-19 -8 -37 -8zM756 948l-146 -361h285zM91 0q-51 0 -51 38q0 11 6 27l564 1414q20 54 78 53h134
q57 1 78 -53l565 -1414q6 -16 6 -27q0 -38 -51 -38h-224q-58 -1 -80 52l-98 224h-529l-93 -224q-21 -53 -78 -52h-227z" />
    <glyph glyph-name="Atilde" unicode="&#xc3;" horiz-adv-x="1536" 
d="M409 1586v214q0 67 47 89q83 40 146 40q63 1 147 -23t114 -24q68 0 187 67q17 9 25 9q31 0 31 -39v-154q1 -54 -43 -83q-97 -70 -159 -70t-154 26t-128 25q-104 0 -181 -91q-6 -8 -15 -8q-17 0 -17 22zM756 948l-146 -361h285zM91 0q-51 0 -51 38q0 11 6 27l564 1414
q20 54 78 53h134q57 1 78 -53l565 -1414q6 -16 6 -27q0 -38 -51 -38h-224q-58 -1 -80 52l-98 224h-529l-93 -224q-21 -53 -78 -52h-227z" />
    <glyph glyph-name="Adieresis" unicode="&#xc4;" horiz-adv-x="1536" 
d="M554 1614q-67 0 -111 44t-44 110q1 66 45 111t110 45t110 -45t45 -111q0 -66 -44 -110t-111 -44zM803 1768q0 66 44 110t110 45q67 0 111 -45t44 -110q0 -66 -44 -110t-110 -44t-110.5 44t-44.5 110zM756 948l-146 -361h285zM91 0q-51 0 -51 38q0 11 6 27l564 1414
q20 54 78 53h134q57 1 78 -53l565 -1414q6 -16 6 -27q0 -38 -51 -38h-224q-58 -1 -80 52l-98 224h-529l-93 -224q-21 -53 -78 -52h-227z" />
    <glyph glyph-name="Aring" unicode="&#xc5;" horiz-adv-x="1536" 
d="M862 1758q0 40 -30 70t-71 31q-41 0 -71 -30q-30 -29 -30 -71t29 -72q29 -29 71 -29t72 30.5t30 70.5zM545 1756q0 92 62 156q61 62 153 62t155 -62q62 -63 62 -155.5t-63 -154.5t-154 -62t-153 62t-62 154zM756 948l-146 -361h285zM91 0q-51 0 -51 38q0 11 6 27
l564 1414q20 54 78 53h134q57 1 78 -53l565 -1414q6 -16 6 -27q0 -38 -51 -38h-224q-58 -1 -80 52l-98 224h-529l-93 -224q-21 -53 -78 -52h-227z" />
    <glyph glyph-name="AE" unicode="&#xc6;" horiz-adv-x="1909" 
d="M924 587v537l-264 -537h264zM1256 934h465q69 2 67 -67v-196q2 -69 -67 -67h-465v-274h465q69 2 67 -67v-196q2 -69 -67 -67h-730q-69 -2 -67 67v209h-401l-121 -225q-26 -52 -84 -51h-228q-48 0 -48 36q0 11 8 27l693 1417q25 53 83 52h895q69 2 67 -67v-196
q2 -69 -67 -67h-465v-268z" />
    <glyph glyph-name="Ccedilla" unicode="&#xc7;" horiz-adv-x="1460" 
d="M96 775q0 316 228 545q229 228 556 228q276 0 461 -149q21 -17 21 -39t-19 -47l-121 -157q-24 -31 -46 -31t-54 21q-118 72 -242 72t-232 -66t-166 -167q-56 -100 -56 -219q0 -184 130 -317t322 -133q131 0 246 73q30 20 52 20t46 -31l121 -159q19 -25 19 -49t-39 -50
q-201 -136 -445 -136q-26 0 -73 4l-27 -35q160 -18 160 -170q0 -101 -74 -155t-166 -54q-90 0 -164 31q-28 12 -28 50v89q0 33 26 33q7 0 47 -13t74 -13h19q33 1 33 31t-43 30h-113q-26 0 -26 20q0 6 7 16l121 168q-218 77 -350 220q-205 223 -205 539z" />
    <glyph glyph-name="Egrave" unicode="&#xc8;" horiz-adv-x="1079" 
d="M774 1776q0 -20 -12 -39l-85 -136q-21 -33 -39 -33t-38 8l-273 112q-39 16 -39 44q0 13 8 32l67 146q17 38 44 38q13 0 32 -8l300 -128q35 -16 35 -36zM430 934h465q69 2 67 -67v-196q2 -69 -67 -67h-465v-274h465q69 2 67 -67v-196q2 -69 -67 -67h-728q-69 -2 -67 67
v1398q-2 69 67 67h728q69 2 67 -67v-196q2 -69 -67 -67h-465v-268z" />
    <glyph glyph-name="Eacute" unicode="&#xc9;" horiz-adv-x="1079" 
d="M659 1948q27 0 44 -38l65 -146q9 -20 9 -32q0 -28 -39 -44l-274 -112q-20 -8 -38 -8t-38 33l-86 136q-12 19 -12 39t35 36l302 128q20 8 32 8zM430 934h465q69 2 67 -67v-196q2 -69 -67 -67h-465v-274h465q69 2 67 -67v-196q2 -69 -67 -67h-728q-69 -2 -67 67v1398
q-2 69 67 67h728q69 2 67 -67v-196q2 -69 -67 -67h-465v-268z" />
    <glyph glyph-name="Ecircumflex" unicode="&#xca;" horiz-adv-x="1079" 
d="M360 1606q-18 0 -38 33l-89 135q-12 19 -12 33q0 26 36 39l215 83q38 15 58 15t58 -16l220 -92q35 -15 35 -35t-13 -39l-91 -135q-21 -32 -39 -32t-37 9l-135 59l-130 -49q-20 -8 -38 -8zM430 934h465q69 2 67 -67v-196q2 -69 -67 -67h-465v-274h465q69 2 67 -67v-196
q2 -69 -67 -67h-728q-69 -2 -67 67v1398q-2 69 67 67h728q69 2 67 -67v-196q2 -69 -67 -67h-465v-268z" />
    <glyph glyph-name="Edieresis" unicode="&#xcb;" horiz-adv-x="1079" 
d="M329 1614q-67 0 -111 44t-44 110t44 111t111 45t111 -45t44 -111t-44 -110t-111 -44zM731 1923q67 0 111 -45t44 -110q0 -66 -44 -110t-111 -44t-111 44t-43 110q0 66 44 110t110 45zM430 934h465q69 2 67 -67v-196q2 -69 -67 -67h-465v-274h465q69 2 67 -67v-196
q2 -69 -67 -67h-728q-69 -2 -67 67v1398q-2 69 67 67h728q69 2 67 -67v-196q2 -69 -67 -67h-465v-268z" />
    <glyph glyph-name="Igrave" unicode="&#xcc;" horiz-adv-x="526" 
d="M500 1776q0 -21 -11 -39l-86 -136q-21 -33 -39 -33t-37 8l-274 112q-39 16 -39 44q0 13 9 32l66 146q17 38 45 38q12 0 32 -8l299 -128q35 -15 35 -36zM161 1532h196q69 2 67 -67v-1398q2 -69 -67 -67h-196q-69 -2 -67 67v1398q-2 69 67 67z" />
    <glyph glyph-name="Iacute" unicode="&#xcd;" horiz-adv-x="526" 
d="M385 1948q27 0 44 -38l65 -146q9 -20 9 -32q0 -28 -39 -44l-274 -112q-20 -8 -38 -8t-39 33l-85 136q-12 19 -12 39t35 36l302 128q19 8 32 8zM161 1532h196q69 2 67 -67v-1398q2 -69 -67 -67h-196q-69 -2 -67 67v1398q-2 69 67 67z" />
    <glyph glyph-name="Icircumflex" unicode="&#xce;" horiz-adv-x="526" 
d="M84 1606q-17 0 -39 33l-88 135q-12 19 -12 33q0 26 35 39l216 83q38 15 58 15t57 -16l221 -92q35 -15 35 -42q0 -12 -13 -32l-91 -135q-21 -32 -39 -32t-38 9l-134 59l-130 -49q-21 -8 -38 -8zM161 1532h196q69 2 67 -67v-1398q2 -69 -67 -67h-196q-69 -2 -67 67v1398
q-2 69 67 67z" />
    <glyph glyph-name="Idieresis" unicode="&#xcf;" horiz-adv-x="526" 
d="M53 1614q-67 0 -111 44t-44 110t44 111t111 45t111 -45t44 -111t-44 -110t-111 -44zM455 1923q67 0 111 -45t44 -110q0 -66 -44 -110t-111 -44t-111 44t-43 110q0 66 44 110t110 45zM162 1532h196q69 2 67 -67v-1398q2 -69 -67 -67h-196q-69 -2 -67 67v1398q-2 69 67 67z
" />
    <glyph glyph-name="Eth" unicode="&#xd0;" horiz-adv-x="1708" 
d="M633 866h135q69 2 67 -67v-140q2 -69 -67 -67h-135v-262h180q193 0 315 122t123 317q0 193 -120 313t-308 120h-190v-336zM301 866v599q-2 69 67 67h445q319 0 545 -226t226 -540t-226 -540t-545 -226h-447q-69 -2 -67 67l2 525h-134q-69 -2 -67 67v140q-2 69 67 67h134z
" />
    <glyph glyph-name="Ntilde" unicode="&#xd1;" horiz-adv-x="1456" 
d="M382 1608v214q0 68 48 90q85 40 146 40q62 0 146 -24t114 -24q68 0 187 67q17 9 25 9q31 0 31 -38v-154q1 -51 -43 -84q-96 -70 -158 -70t-156 26q-92 26 -127 26q-103 0 -181 -92q-6 -8 -15 -8q-17 0 -17 22zM415 887v-820q2 -69 -67 -67h-179q-69 -2 -67 67v1398
q-2 69 67 67h175q61 1 95 -50l581 -835v816q-2 69 67 67h179q69 2 67 -67v-1396q2 -69 -67 -67h-173q-61 -1 -95 50z" />
    <glyph glyph-name="Ograve" unicode="&#xd2;" horiz-adv-x="1794" 
d="M1131 1769q0 -12 -12 -32l-86 -136q-21 -33 -38 -33t-38 8l-274 112q-39 16 -39 44q0 12 9 32l66 146q18 38 45 38q12 0 32 -8l299 -128q36 -16 36 -43zM1333 767q0 187 -131 319q-130 132 -318 132t-321 -132t-133 -318t134 -319t319.5 -133t317.5 132t132 319zM100 766
q0 324 228 553t553 229q326 0 555 -228t229 -554t-229 -554t-554 -228t-554 228q-228 230 -228 554z" />
    <glyph glyph-name="Oacute" unicode="&#xd3;" horiz-adv-x="1794" 
d="M1015 1948q27 0 44 -38l66 -146q8 -19 8 -32q0 -28 -39 -44l-274 -112q-21 -8 -38 -8t-38 33l-86 136q-12 19 -12 39t35 36l302 128q20 8 32 8zM1333 767q0 187 -131 319q-130 132 -318 132t-321 -132t-133 -318t134 -319t319.5 -133t317.5 132t132 319zM100 766
q0 324 228 553t553 229q326 0 555 -228t229 -554t-229 -554t-554 -228t-554 228q-228 230 -228 554z" />
    <glyph glyph-name="Ocircumflex" unicode="&#xd4;" horiz-adv-x="1794" 
d="M714 1606q-18 0 -38 33l-88 135q-12 18 -12 33q0 26 35 39l215 83q38 15 58 15t58 -16l221 -92q34 -15 34 -35t-12 -39l-91 -135q-20 -32 -38 -32t-39 9l-135 59l-130 -49q-20 -8 -38 -8zM1333 767q0 187 -131 319q-130 132 -318 132t-321 -132t-133 -318t134 -319
t319.5 -133t317.5 132t132 319zM100 766q0 324 228 553t553 229q326 0 555 -228t229 -554t-229 -554t-554 -228t-554 228q-228 230 -228 554z" />
    <glyph glyph-name="Otilde" unicode="&#xd5;" horiz-adv-x="1794" 
d="M537 1586v217q0 67 54 89q90 37 146 37q57 1 141 -23t114 -24q67 0 187 67q17 9 25 9q31 0 31 -39v-154q1 -52 -35 -77q-101 -76 -166 -76q-64 0 -156 26t-128 25q-104 0 -181 -91q-6 -8 -15 -8q-17 0 -17 22zM1333 767q0 187 -131 319q-130 132 -318 132t-321 -132
t-133 -318t134 -319t319.5 -133t317.5 132t132 319zM100 766q0 324 228 553t553 229q326 0 555 -228t229 -554t-229 -554t-554 -228t-554 228q-228 230 -228 554z" />
    <glyph glyph-name="Odieresis" unicode="&#xd6;" horiz-adv-x="1794" 
d="M683 1614q-67 0 -111 44t-44 110t44 111t111 45t111 -45t44 -111t-44 -110t-111 -44zM931 1768q0 66 44 110t110 45q67 0 111 -45t44 -110q0 -66 -44 -110t-110 -44t-110.5 44t-44.5 110zM1333 767q0 187 -131 319q-130 132 -318 132t-321 -132t-133 -318t134 -319
t319.5 -133t317.5 132t132 319zM100 766q0 324 228 553t553 229q326 0 555 -228t229 -554t-229 -554t-554 -228t-554 228q-228 230 -228 554z" />
    <glyph glyph-name="multiply" unicode="&#xd7;" horiz-adv-x="1176" 
d="M171 786q0 23 25 47l95 92q25 24 47 24t47 -25l213 -213l219 219q24 24 47 24t48 -24l94 -94q24 -25 24 -48t-24 -47l-217 -219l215 -215q25 -25 25 -47t-24 -47l-94 -97q-24 -25 -47 -25t-47 24l-219 219l-219 -221q-25 -25 -47 -25t-47 25l-95 96q-24 25 -24 47t25 47
l221 219l-217 217q-24 24 -24 47z" />
    <glyph glyph-name="Oslash" unicode="&#xd8;" horiz-adv-x="1794" 
d="M882 1219q-186 0 -319 -133t-133 -320q0 -254 229 -391l246 844h-23zM876 315h6q187 1 319 133t132 317q0 265 -252 405l-244 -853q14 -2 39 -2zM566 -92q-34 0 -34 25q0 7 3 16l32 100q-191 87 -301 227q-166 211 -166 489q0 327 228 555q229 228 558 228q59 0 113 -8
l17 57q9 36 46 35h107q34 0 34 -28q0 -6 -2 -14l-26 -99q200 -87 314 -224q176 -211 176 -499q0 -328 -229 -556t-553 -228q-73 0 -144 12l-16 -54q-10 -35 -47 -34h-110z" />
    <glyph glyph-name="Ugrave" unicode="&#xd9;" horiz-adv-x="1243" 
d="M856 1776q0 -20 -12 -39l-85 -136q-21 -33 -39 -33t-38 8l-274 112q-38 16 -38 44q0 13 8 32l67 146q17 38 44 38q13 0 32 -8l300 -128q35 -16 35 -36zM1126 446q0 -217 -188 -353q-143 -103 -320 -103q-234 0 -392 159q-126 127 -126 297v1017q-2 69 67 67h196
q69 2 67 -67v-978q0 -75 62 -119t129 -44t121 44t54 111v986q-2 69 67 67h196q69 2 67 -67v-1017z" />
    <glyph glyph-name="Uacute" unicode="&#xda;" horiz-adv-x="1243" 
d="M740 1948q28 0 45 -38l65 -146q9 -20 9 -32q0 -28 -39 -44l-274 -112q-20 -8 -38 -8t-39 33l-85 136q-12 19 -12 39t35 36l302 128q19 8 31 8zM1126 446q0 -217 -188 -353q-143 -103 -320 -103q-234 0 -392 159q-126 127 -126 297v1017q-2 69 67 67h196q69 2 67 -67v-978
q0 -75 62 -119t129 -44t121 44t54 111v986q-2 69 67 67h196q69 2 67 -67v-1017z" />
    <glyph glyph-name="Ucircumflex" unicode="&#xdb;" horiz-adv-x="1243" 
d="M442 1606q-18 0 -38 33l-89 135q-12 19 -12 33q0 26 36 39l215 83q38 15 58 15t58 -16l220 -92q35 -15 35 -35t-13 -39l-91 -135q-21 -32 -39 -32t-38 9l-134 59l-130 -49q-20 -8 -38 -8zM1126 446q0 -217 -188 -353q-143 -103 -320 -103q-234 0 -392 159
q-126 127 -126 297v1017q-2 69 67 67h196q69 2 67 -67v-978q0 -75 62 -119t129 -44t121 44t54 111v986q-2 69 67 67h196q69 2 67 -67v-1017z" />
    <glyph glyph-name="Udieresis" unicode="&#xdc;" horiz-adv-x="1243" 
d="M411 1614q-67 0 -111 44t-44 110t44 111t111 45t111 -45t44 -111t-44 -110t-111 -44zM659 1768q0 66 44 110t110 45q67 -1 111 -45t44 -110t-44 -110t-110 -44t-110.5 44t-44.5 110zM1126 446q0 -217 -188 -353q-143 -103 -320 -103q-234 0 -392 159q-126 127 -126 297
v1017q-2 69 67 67h196q69 2 67 -67v-978q0 -75 62 -119t129 -44t121 44t54 111v986q-2 69 67 67h196q69 2 67 -67v-1017z" />
    <glyph glyph-name="Yacute" unicode="&#xdd;" horiz-adv-x="1217" 
d="M726 1948q27 0 45 -38l65 -146q8 -18 8 -32q0 -28 -38 -44l-275 -112q-19 -8 -37 -8t-39 33l-85 136q-12 19 -12 39t35 36l301 128q20 8 32 8zM27 1495q0 37 50 37h237q57 1 78 -53l206 -516l208 514q21 54 78 53h233q50 0 50 -37q0 -11 -7 -28l-396 -912v-486
q2 -69 -67 -67h-196q-69 -2 -67 67v486l-400 914q-7 17 -7 28z" />
    <glyph glyph-name="Thorn" unicode="&#xde;" horiz-adv-x="1788" 
d="M432 641h150q68 0 96 50t28 108q0 57 -38 93t-86 36h-150v-287zM432 311v-244q2 -69 -67 -67h-198q-69 -2 -67 67v1398q-2 69 67 67h198q69 2 67 -67v-205h148q196 0 326 -132t130 -342t-134 -342t-320 -133h-150z" />
    <glyph glyph-name="germandbls" unicode="&#xdf;" horiz-adv-x="1147" 
d="M1048 476q0 -208 -134 -342t-317 -134h-37q-69 -2 -67 67v192q-2 68 67 67h25q67 0 103 50t35 108q0 112 -149 168q-37 17 -36 64v164q-1 50 43 68q68 30 68 117q-1 53 -35 87t-91 34t-81 -43q-12 -21 -12 -41v-1035q2 -69 -67 -67h-192q-69 -2 -67 67v1035
q0 164 123 288t296 124t306 -120t133 -306q0 -139 -76 -250q162 -154 162 -362z" />
    <glyph glyph-name="agrave" unicode="&#xe0;" horiz-adv-x="1202" 
d="M834 1366q0 -20 -12 -38l-85 -137q-21 -32 -39 -32t-38 8l-274 111q-38 16 -38 44q0 14 8 32l67 146q17 38 45 38q12 0 31 -8l300 -128q35 -16 35 -36zM354 512q0 -93 62 -156t153 -63q91 1 153 63t63 156q-1 94 -63 156q-62 63 -153 63t-153 -63t-62 -156zM568 -16
q-218 0 -372 156t-154 372t154 372t373 156q126 0 241 -59q3 44 52 43h169q69 2 67 -67v-900q1 -69 -67 -67h-132q-66 -3 -67 58v7q-126 -71 -264 -71z" />
    <glyph glyph-name="aacute" unicode="&#xe1;" horiz-adv-x="1202" 
d="M718 1538q28 0 45 -38l65 -146q8 -17 8 -31q0 -29 -38 -45l-274 -111q-20 -8 -38 -8t-39 32l-85 137q-12 18 -12 38t35 36l301 128q19 8 32 8zM354 512q0 -93 62 -156t153 -63q91 1 153 63t63 156q-1 94 -63 156q-62 63 -153 63t-153 -63t-62 -156zM568 -16
q-218 0 -372 156t-154 372t154 372t373 156q126 0 241 -59q3 44 52 43h169q69 2 67 -67v-900q1 -69 -67 -67h-132q-66 -3 -67 58v7q-126 -71 -264 -71z" />
    <glyph glyph-name="acircumflex" unicode="&#xe2;" horiz-adv-x="1202" 
d="M420 1197q-18 0 -38 32l-89 136q-12 18 -12 33q0 25 35 39l216 83q36 14 57 14t59 -16l220 -92q35 -14 35 -42q0 -12 -13 -31l-91 -136q-21 -31 -39 -31t-38 9l-134 59l-130 -50q-20 -7 -38 -7zM354 512q0 -93 62 -156t153 -63q91 1 153 63t63 156q-1 94 -63 156
q-62 63 -153 63t-153 -63t-62 -156zM568 -16q-218 0 -372 156t-154 372t154 372t373 156q126 0 241 -59q3 44 52 43h169q69 2 67 -67v-900q1 -69 -67 -67h-132q-66 -3 -67 58v7q-126 -71 -264 -71z" />
    <glyph glyph-name="atilde" unicode="&#xe3;" horiz-adv-x="1202" 
d="M243 1176v214q-1 65 47 90q103 40 155 40q53 0 137 -24t115 -24q68 0 187 67q16 9 25 9q31 0 31 -38v-154q1 -51 -43 -84q-97 -70 -159 -70t-154 26t-128 26q-103 0 -181 -92q-6 -8 -15 -8q-17 0 -17 22zM354 512q0 -93 62 -156t153 -63q91 1 153 63t63 156
q-1 94 -63 156q-62 63 -153 63t-153 -63t-62 -156zM568 -16q-218 0 -372 156t-154 372t154 372t373 156q126 0 241 -59q3 44 52 43h169q69 2 67 -67v-900q1 -69 -67 -67h-132q-66 -3 -67 58v7q-126 -71 -264 -71z" />
    <glyph glyph-name="adieresis" unicode="&#xe4;" horiz-adv-x="1202" 
d="M389 1204q-67 0 -111 44t-44 110t44 111t111 45t111 -45t44 -111t-44 -110t-111 -44zM637 1358q0 66 44 110t110 45q67 0 111 -45t44 -110q0 -66 -44 -110t-110 -44t-110.5 44t-44.5 110zM354 512q0 -93 62 -156t153 -63q91 1 153 63t63 156q-1 94 -63 156
q-62 63 -153 63t-153 -63t-62 -156zM568 -16q-218 0 -372 156t-154 372t154 372t373 156q126 0 241 -59q3 44 52 43h169q69 2 67 -67v-900q1 -69 -67 -67h-132q-66 -3 -67 58v7q-126 -71 -264 -71z" />
    <glyph glyph-name="aring" unicode="&#xe5;" horiz-adv-x="1202" 
d="M592 1450q-40 0 -70 -30t-30 -72t29 -71t71 -29t72 30t30 70t-30 72q-32 30 -72 30zM809 1348q0 -92 -63 -154q-62 -62 -154 -63q-92 0 -154 62q-62 63 -61 155q0 92 62 154q61 62 153 63q92 0 155 -62q62 -63 62 -155zM354 512q0 -93 62 -156t153 -63q91 1 153 63
t63 156q-1 94 -63 156q-62 63 -153 63t-153 -63t-62 -156zM568 -16q-218 0 -372 156t-154 372t154 372t373 156q126 0 241 -59q3 44 52 43h169q69 2 67 -67v-900q1 -69 -67 -67h-132q-66 -3 -67 58v7q-126 -71 -264 -71z" />
    <glyph glyph-name="ae" unicode="&#xe6;" horiz-adv-x="1896" 
d="M1323 740q-126 0 -174 -98h319q-19 98 -145 98zM784 512q0 94 -62 156t-154 63q-92 0 -154 -63t-62 -156t62 -156t154 -63q92 1 154 63t62 156zM1357 279q101 0 209 42q19 8 30 8q36 0 54 -44l53 -129q10 -22 10 -44t-38 -44q-146 -84 -335 -84q-133 0 -242 53
q-4 -49 -58 -47h-142q-66 -3 -66 58v7q-128 -71 -265 -71q-217 0 -371 156t-155 372q1 218 155 373t373 155q126 0 240 -59q4 44 53 43h188q44 1 48 -39q111 53 229 53q228 0 355 -174q102 -141 102 -338q0 -45 -4 -71q-7 -49 -68 -49h-565q44 -127 210 -127z" />
    <glyph glyph-name="ccedilla" unicode="&#xe7;" horiz-adv-x="1126" 
d="M57 528q0 204 154 358q155 154 373 154t387 -174q41 -42 41 -68t-32 -49l-128 -96q-25 -18 -45 -18t-45 20q-84 72 -172 72q-88 -1 -152 -63q-62 -62 -62 -151t62 -152q64 -62 152 -62t181 100q15 18 35 18t42 -11l160 -80q39 -20 39 -55t-81 -118q-134 -139 -331 -167
l-25 -33q160 -18 160 -170q0 -101 -74 -155t-166 -54q-90 0 -164 31q-28 12 -28 50v89q0 33 26 33q5 0 46 -13t75 -13h19q33 1 33 31t-43 30h-113q-26 0 -26 21q0 6 7 15l107 150q-188 50 -300 188t-112 342z" />
    <glyph glyph-name="egrave" unicode="&#xe8;" horiz-adv-x="1092" 
d="M779 1367q0 -20 -12 -39l-86 -137q-21 -32 -39 -32t-37 8l-274 111q-39 16 -39 44q0 13 9 32l66 146q18 38 45 38q13 0 32 -8l300 -128q35 -15 35 -35zM565 740q-126 0 -174 -98h320q-20 98 -146 98zM599 278q100 0 209 43q20 8 31 8q35 0 53 -44l53 -129q10 -22 10 -44
t-38 -44q-147 -85 -330 -85q-234 0 -389 154.5t-155 374.5t154 373t377 153t350 -174q102 -141 102 -338q0 -45 -4 -71q-7 -49 -68 -49h-565q44 -128 210 -128z" />
    <glyph glyph-name="eacute" unicode="&#xe9;" horiz-adv-x="1092" 
d="M663 1538q27 0 45 -38l65 -146q8 -18 8 -32q0 -28 -39 -44l-274 -111q-20 -8 -38 -8t-38 32l-86 137q-12 19 -12 33q0 26 36 41l301 128q19 8 32 8zM565 740q-126 0 -174 -98h320q-20 98 -146 98zM599 278q100 0 209 43q20 8 31 8q35 0 53 -44l53 -129q10 -22 10 -44
t-38 -44q-147 -85 -330 -85q-234 0 -389 154.5t-155 374.5t154 373t377 153t350 -174q102 -141 102 -338q0 -45 -4 -71q-7 -49 -68 -49h-565q44 -128 210 -128z" />
    <glyph glyph-name="ecircumflex" unicode="&#xea;" horiz-adv-x="1092" 
d="M365 1197q-18 0 -39 32l-88 136q-12 18 -12 32q0 27 35 40l215 83q38 14 58 14t58 -16l221 -92q34 -14 34 -34t-12 -39l-91 -136q-21 -31 -39 -31t-38 9l-135 59l-130 -50q-19 -7 -37 -7zM565 740q-126 0 -174 -98h320q-20 98 -146 98zM599 278q100 0 209 43q20 8 31 8
q35 0 53 -44l53 -129q10 -22 10 -44t-38 -44q-147 -85 -330 -85q-234 0 -389 154.5t-155 374.5t154 373t377 153t350 -174q102 -141 102 -338q0 -45 -4 -71q-7 -49 -68 -49h-565q44 -128 210 -128z" />
    <glyph glyph-name="edieresis" unicode="&#xeb;" horiz-adv-x="1092" 
d="M333 1204q-67 0 -111 44t-44 110t44 111t111 45t111 -45t44 -111t-44 -110t-111 -44zM891 1358q0 -66 -44 -110t-111 -44q-66 0 -110 44t-44 110t44 110t110 45q66 0 110.5 -45t44.5 -110zM565 740q-126 0 -174 -98h320q-20 98 -146 98zM599 278q100 0 209 43q20 8 31 8
q35 0 53 -44l53 -129q10 -22 10 -44t-38 -44q-147 -85 -330 -85q-234 0 -389 154.5t-155 374.5t154 373t377 153t350 -174q102 -141 102 -338q0 -45 -4 -71q-7 -49 -68 -49h-565q44 -128 210 -128z" />
    <glyph glyph-name="igrave" unicode="&#xec;" horiz-adv-x="430" 
d="M459 1366q0 -20 -11 -38l-86 -137q-20 -32 -38 -32t-38 8l-274 111q-39 16 -39 44q0 13 9 32l66 146q17 38 45 38q13 0 32 -8l299 -128q35 -16 35 -36zM55 67v890q-2 69 67 67h179q69 2 67 -67v-890q2 -69 -67 -67h-179q-69 -2 -67 67z" />
    <glyph glyph-name="iacute" unicode="&#xed;" horiz-adv-x="430" 
d="M345 1538q28 0 45 -38l65 -146q9 -20 9 -32q0 -28 -39 -44l-274 -111q-19 -8 -37 -8t-40 32l-85 137q-12 19 -12 39t35 35l302 128q19 8 31 8zM55 67v890q-2 69 67 67h179q69 2 67 -67v-890q2 -69 -67 -67h-179q-69 -2 -67 67z" />
    <glyph glyph-name="icircumflex" unicode="&#xee;" horiz-adv-x="430" 
d="M46 1197q-18 0 -40 32l-88 136q-12 18 -12 33q0 25 35 39l216 83q36 14 57 14t58 -16l221 -92q35 -14 35 -42q0 -12 -13 -31l-91 -136q-21 -31 -39 -31t-38 9l-134 59l-130 -50q-19 -7 -37 -7zM55 67v890q-2 69 67 67h179q69 2 67 -67v-890q2 -69 -67 -67h-179
q-69 -2 -67 67z" />
    <glyph glyph-name="idieresis" unicode="&#xef;" horiz-adv-x="430" 
d="M16 1204q-67 0 -111 44t-44 110q1 66 45 111t110 45t110 -45t45 -111q0 -66 -44 -110t-111 -44zM573 1358q0 -66 -44 -110t-111 -44q-66 0 -110 44t-44 110t44 110t110 45q66 0 110.5 -45t44.5 -110zM56 67v890q-2 69 67 67h179q69 2 67 -67v-890q2 -69 -67 -67h-179
q-69 -2 -67 67z" />
    <glyph glyph-name="eth" unicode="&#xf0;" horiz-adv-x="1311" 
d="M890 528q0 102 -66 168t-167 66t-168 -66t-67 -167.5t66 -167.5t168 -66t169 65q65 66 65 168zM788 1544q20 0 40 -29l67 -97q15 -20 15 -40t-30 -41l-64 -45l311 -489q74 -117 74 -272q1 -227 -159 -387t-386 -160t-386 159q-159 160 -159 386q0 257 207 410
q111 81 210 95t99 22q0 2 -2 5l-43 63l-55 -39q-21 -15 -41 -15t-40 29l-68 97q-15 21 -15 41t28 40l58 42l-23 33q-15 22 -15 41t28 40l139 102q20 16 40 16t41 -26l30 -36l58 40q21 15 41 15z" />
    <glyph glyph-name="ntilde" unicode="&#xf1;" horiz-adv-x="1092" 
d="M190 1176v234q0 50 40 67q102 43 159 43t141 -24t114 -24q68 0 187 67q16 9 25 9q31 0 31 -38v-154q1 -51 -43 -84q-96 -70 -158 -70t-156 26q-92 26 -127 26q-103 0 -181 -92q-6 -8 -15 -8q-17 0 -17 22zM541 1040q227 0 341 -126t114 -330v-517q2 -69 -67 -67h-179
q-69 -2 -67 67v513q0 61 -43 104t-102 43t-104 -41t-45 -96v-523q2 -69 -67 -67h-177q-69 -2 -67 67v894q-2 69 67 67h139q44 1 48 -39q82 51 209 51z" />
    <glyph glyph-name="ograve" unicode="&#xf2;" horiz-adv-x="1192" 
d="M829 1366q0 -20 -11 -38l-86 -137q-20 -32 -38 -32t-38 8l-274 111q-39 16 -39 44q0 13 9 32l66 146q17 38 45 38q13 0 32 -8l299 -128q35 -16 35 -36zM586 299q90 1 152 63t63 150q-1 88 -63 152q-62 63 -152 63q-90 -1 -152 -63t-62 -151t62 -152q62 -62 152 -62z
M1114 512q0 -220 -154 -374t-374 -154q-218 0 -372 154t-155 374q0 220 153 374q154 154 374 154t374 -154t154 -374z" />
    <glyph glyph-name="oacute" unicode="&#xf3;" horiz-adv-x="1192" 
d="M714 1538q27 0 44 -38l65 -146q9 -19 9 -32q0 -28 -39 -44l-274 -111q-19 -8 -37 -8t-39 32l-86 137q-12 19 -12 39t35 35l302 128q19 8 32 8zM586 299q90 1 152 63t63 150q-1 88 -63 152q-62 63 -152 63q-90 -1 -152 -63t-62 -151t62 -152q62 -62 152 -62zM1114 512
q0 -220 -154 -374t-374 -154q-218 0 -372 154t-155 374q0 220 153 374q154 154 374 154t374 -154t154 -374z" />
    <glyph glyph-name="ocircumflex" unicode="&#xf4;" horiz-adv-x="1192" 
d="M414 1197q-18 0 -39 32l-89 136q-12 19 -12 33q0 25 36 39l215 83q37 14 57 14t59 -16l221 -92q34 -14 34 -34t-12 -39l-91 -136q-21 -31 -39 -31t-38 9l-135 59l-130 -50q-19 -7 -37 -7zM586 299q90 1 152 63t63 150q-1 88 -63 152q-62 63 -152 63q-90 -1 -152 -63
t-62 -151t62 -152q62 -62 152 -62zM1114 512q0 -220 -154 -374t-374 -154q-218 0 -372 154t-155 374q0 220 153 374q154 154 374 154t374 -154t154 -374z" />
    <glyph glyph-name="otilde" unicode="&#xf5;" horiz-adv-x="1192" 
d="M236 1176v211q0 73 50 94q92 39 149 39t141 -24t114 -24q68 0 187 67q17 9 25 9q31 0 31 -38v-154q1 -51 -43 -84q-96 -70 -158 -70t-156 26q-92 26 -127 26q-103 0 -181 -92q-6 -8 -15 -8q-17 0 -17 22zM586 299q90 1 152 63t63 150q-1 88 -63 152q-62 63 -152 63
q-90 -1 -152 -63t-62 -151t62 -152q62 -62 152 -62zM1114 512q0 -220 -154 -374t-374 -154q-218 0 -372 154t-155 374q0 220 153 374q154 154 374 154t374 -154t154 -374z" />
    <glyph glyph-name="odieresis" unicode="&#xf6;" horiz-adv-x="1192" 
d="M382 1204q-67 0 -111 44t-44 110q1 66 45 111t110 45t110.5 -45t44.5 -111t-44 -110t-111 -44zM630 1358q0 66 44 110t110 45q66 0 110 -45t45 -110q0 -66 -44 -110q-45 -44 -111 -44t-110 44t-44 110zM586 299q90 1 152 63t63 150q-1 88 -63 152q-62 63 -152 63
q-90 -1 -152 -63t-62 -151t62 -152q62 -62 152 -62zM1114 512q0 -220 -154 -374t-374 -154q-218 0 -372 154t-155 374q0 220 153 374q154 154 374 154t374 -154t154 -374z" />
    <glyph glyph-name="divide" unicode="&#xf7;" horiz-adv-x="1229" 
d="M424 199q0 73 51 125t125 51q74 0 125 -50.5t51 -124.5t-52 -126t-124 -52t-124 52t-52 125zM424 848q0 74 51 124q51 52 125 52t125 -51t51 -125t-51 -125t-125 -51t-125 51t-51 125zM157 659h890q69 2 67 -67v-136q2 -69 -67 -67h-890q-69 -2 -67 67v136q-2 69 67 67z
" />
    <glyph glyph-name="oslash" unicode="&#xf8;" horiz-adv-x="1192" 
d="M348 502q0 -106 92 -180l125 430q-97 -14 -157 -79t-60 -171zM829 526q0 108 -100 181l-129 -433q102 12 166 78t63 174zM450 -121h-90q-34 0 -34 28q0 6 2 14l30 114q-299 155 -299 478q0 220 154 374t374 154h13q31 -1 47 -3l20 71q10 35 47 34h96q34 0 34 -28
q0 -6 -2 -14l-31 -112q121 -62 192 -153q111 -144 111 -320t-101 -316q-158 -217 -453 -217q-24 0 -42 5q-6 -22 -16 -56t-20 -44t-32 -9z" />
    <glyph glyph-name="ugrave" unicode="&#xf9;" horiz-adv-x="1096" 
d="M783 1367q0 -20 -12 -39l-86 -137q-21 -32 -39 -32t-37 8l-274 111q-38 16 -38 45q0 13 8 31l67 146q17 38 44 38q13 0 32 -8l300 -128q35 -15 35 -35zM533 -16q-227 0 -341 126t-114 330v517q-2 69 67 67h177q69 2 67 -67v-513q0 -61 44.5 -104t102.5 -43q58 1 102 41
t45 96v523q-2 69 67 67h179q69 2 67 -67v-896q2 -69 -67 -67h-137q-46 -1 -50 41q-84 -51 -209 -51z" />
    <glyph glyph-name="uacute" unicode="&#xfa;" horiz-adv-x="1096" 
d="M667 1538q28 0 45 -38l65 -146q8 -18 8 -31q0 -29 -38 -45l-274 -111q-21 -8 -39 -8t-38 32l-85 137q-12 18 -12 38t35 36l301 128q19 8 32 8zM533 -16q-227 0 -341 126t-114 330v517q-2 69 67 67h177q69 2 67 -67v-513q0 -61 44.5 -104t102.5 -43q58 1 102 41t45 96v523
q-2 69 67 67h179q69 2 67 -67v-896q2 -69 -67 -67h-137q-46 -1 -50 41q-84 -51 -209 -51z" />
    <glyph glyph-name="ucircumflex" unicode="&#xfb;" horiz-adv-x="1096" 
d="M370 1197q-18 0 -40 32l-88 136q-12 18 -12 33q0 25 35 39l216 83q36 14 57 14t58 -16l221 -92q35 -14 35 -42q0 -12 -13 -31l-91 -136q-21 -31 -39 -31t-38 9l-134 59l-130 -50q-19 -7 -37 -7zM533 -16q-227 0 -341 126t-114 330v517q-2 69 67 67h177q69 2 67 -67v-513
q0 -61 44.5 -104t102.5 -43q58 1 102 41t45 96v523q-2 69 67 67h179q69 2 67 -67v-896q2 -69 -67 -67h-137q-46 -1 -50 41q-84 -51 -209 -51z" />
    <glyph glyph-name="udieresis" unicode="&#xfc;" horiz-adv-x="1096" 
d="M337 1204q-67 0 -111 44t-44 110t44 111t111 45t111 -45t44 -111t-44 -110t-111 -44zM895 1358q0 -66 -44 -110t-111 -44q-66 0 -110 44t-44 110t44 110t110 45q66 0 110.5 -45t44.5 -110zM533 -16q-227 0 -341 126t-114 330v517q-2 69 67 67h177q69 2 67 -67v-513
q0 -61 44.5 -104t102.5 -43q58 1 102 41t45 96v523q-2 69 67 67h179q69 2 67 -67v-896q2 -69 -67 -67h-137q-46 -1 -50 41q-84 -51 -209 -51z" />
    <glyph glyph-name="yacute" unicode="&#xfd;" horiz-adv-x="977" 
d="M606 1538q28 0 45 -38l65 -146q8 -18 8 -32q0 -28 -39 -44l-274 -111q-19 -8 -37 -8t-39 32l-86 137q-11 18 -11 38t35 36l301 128q19 8 32 8zM879 1024q52 0 52 -41q0 -11 -5 -25l-444 -1310q-18 -55 -76 -54h-204q-53 0 -53 40q0 10 6 26l159 454v19l-287 825
q-5 16 -5 26q0 40 53 40h208q58 1 74 -55l123 -424l123 424q15 56 74 55h202z" />
    <glyph glyph-name="thorn" unicode="&#xfe;" horiz-adv-x="1231" 
d="M830 512q0 92 -64 156t-154 63q-91 0 -154 -63t-63 -156t63.5 -156t153.5 -63t154 63.5t64 155.5zM610 1040q219 0 375 -156t156 -372t-156 -372t-372 -156q-110 0 -220 49v-372q2 -69 -67 -67h-179q-69 -2 -67 67v1687q-2 69 67 67h179q69 2 67 -67v-353q113 45 217 45z
" />
    <glyph glyph-name="ydieresis" unicode="&#xff;" horiz-adv-x="977" 
d="M276 1204q-67 0 -111 44t-44 110q1 66 45 111t110 45t110 -45t45 -111q0 -66 -44 -110t-111 -44zM525 1358q0 66 44 110t110 45q67 0 111 -45t44 -110q0 -66 -44 -110t-110 -44t-110.5 44t-44.5 110zM879 1024q52 0 52 -41q0 -11 -5 -25l-444 -1310q-18 -55 -76 -54h-204
q-53 0 -53 40q0 10 6 26l159 454v19l-287 825q-5 16 -5 26q0 40 53 40h208q58 1 74 -55l123 -424l123 424q15 56 74 55h202z" />
    <glyph glyph-name="Dcroat" unicode="&#x110;" horiz-adv-x="1708" 
d="M633 866h135q69 2 67 -67v-140q2 -69 -67 -67h-135v-262h180q193 0 315 122t123 317q0 193 -120 313t-308 120h-190v-336zM301 866v599q-2 69 67 67h445q319 0 545 -226t226 -540t-226 -540t-545 -226h-447q-69 -2 -67 67l2 525h-134q-69 -2 -67 67v140q-2 69 67 67h134z
" />
    <glyph glyph-name="dotlessi" unicode="&#x131;" horiz-adv-x="430" 
d="M57 67v890q-2 69 67 67h179q69 2 67 -67v-890q2 -69 -67 -67h-179q-69 -2 -67 67z" />
    <glyph glyph-name="Lslash" unicode="&#x141;" horiz-adv-x="1225" 
d="M616 330h431q69 2 67 -67v-196q2 -69 -67 -67h-694q-69 -2 -67 67v386l-55 -55q-25 -25 -47 -25t-48 25l-98 98q-24 24 -24 47t24 47l248 248v627q-2 69 67 67h196q69 2 67 -67v-298l98 99q26 24 48 24t47 -24l98 -98q24 -24 24 -48t-24 -47l-291 -288v-455z" />
    <glyph glyph-name="lslash" unicode="&#x142;" horiz-adv-x="913" 
d="M692 1198q23 0 47 -24l96 -95q25 -25 25 -47t-25 -47l-235 -236v-682q2 -69 -67 -67h-177q-69 -2 -67 67v371l-45 -45q-25 -25 -47 -25t-47 25l-96 95q-25 24 -25 46t25 48l235 235v531q-2 69 67 67h177q69 2 67 -67v-218l45 44q24 24 47 24z" />
    <glyph glyph-name="OE" unicode="&#x152;" horiz-adv-x="2314" 
d="M1333 767q0 187 -131 319q-130 132 -318 132t-321 -132t-133 -319t134 -319t319.5 -132t317.5 132t132 319zM1669 934h465q69 2 67 -67v-196q2 -69 -67 -67h-465v-274h465q69 2 67 -67v-196q2 -69 -67 -67h-728q-69 -2 -67 67v62q-212 -145 -456 -145q-326 0 -555 228
q-228 229 -228 554t228 554q229 228 554 228q242 0 457 -147v64q-1 69 67 67h728q69 2 67 -67v-196q2 -69 -67 -67h-465v-268z" />
    <glyph glyph-name="oe" unicode="&#x153;" horiz-adv-x="1849" 
d="M1331 740q-126 0 -174 -98h319q-19 98 -145 98zM586 300q90 0 152 62t62 152q0 88 -62 150t-152 63q-90 0 -152 -62q-62 -61 -62 -151t62 -152t152 -62zM1365 278q100 0 209 43q19 8 30 8q35 0 53 -44l54 -129q9 -22 9 -44t-38 -44q-147 -85 -331 -85q-227 0 -391 156
q-161 -155 -377 -155t-370 154t-154 374t154 374t369 154t380 -155q163 153 382 153t346 -174q102 -140 102 -338q0 -46 -4 -71q-7 -49 -68 -49h-565q44 -128 210 -128z" />
    <glyph glyph-name="Scaron" unicode="&#x160;" horiz-adv-x="1104" 
d="M714 1944q18 0 37 -32l90 -137q13 -19 13 -39t-35 -35l-221 -92q-38 -16 -58 -16t-58 15l-215 82q-35 14 -35 40q0 15 12 33l88 136q21 32 39 32t37 -7l131 -48l136 59q21 9 39 9zM340 434q19 0 44 -34q63 -87 152 -87q52 0 88 36t37 97q0 88 -70 132q-28 18 -120 50
q-375 133 -375 460q0 204 125 330t320 126t326 -140q67 -72 67 -111t-42 -59l-182 -87q-22 -11 -42 -11t-38 25q-41 51 -93 51q-51 0 -81 -40t-30 -80q0 -91 170 -156l26 -10q369 -142 369 -475q-1 -207 -131 -337t-311 -130h-17q-236 0 -371 197q-58 87 -58 123t44 55
l151 65q23 10 42 10z" />
    <glyph glyph-name="scaron" unicode="&#x161;" horiz-adv-x="735" 
d="M541 1534q18 0 39 -31l90 -138q12 -18 12 -31q0 -28 -35 -42l-221 -92q-40 -17 -58 -17t-57 15l-216 83q-35 14 -35 39q0 15 12 33l89 136q21 32 39 32t37 -7l130 -47l136 58q20 9 38 9zM244 347q12 0 40 -31t60 -31q33 0 33 35q0 54 -102 103t-150 100q-72 75 -72 211
t86 222t225 85q139 0 234 -131q49 -66 49 -99t-41 -55l-109 -58q-20 -11 -39 -11q-20 -1 -38 27t-46 28t-28 -30q0 -38 92 -85q232 -117 232 -327q0 -136 -90 -226t-217 -90q-155 0 -266 139q-44 55 -44 85t38 54l125 76q16 9 28 9z" />
    <glyph glyph-name="Ydieresis" unicode="&#x178;" horiz-adv-x="1217" 
d="M394 1614q-67 0 -111 44t-44 110q1 66 45 111t110 45t110 -45t45 -111q0 -66 -44 -110t-111 -44zM797 1923q67 0 111 -45t44 -110q0 -66 -44 -110t-111 -44t-111 44t-43 110q0 66 44 110t110 45zM27 1495q0 37 50 37h237q57 1 78 -53l206 -516l208 514q21 54 78 53h233
q50 0 50 -37q0 -11 -7 -28l-396 -912v-486q2 -69 -67 -67h-196q-69 -2 -67 67v486l-400 914q-7 17 -7 28z" />
    <glyph glyph-name="Zcaron" unicode="&#x17d;" horiz-adv-x="1200" 
d="M98 169q0 51 8 77q7 26 45 87l537 869h-523q-69 -2 -67 67v196q-2 69 67 67h849q69 2 67 -67v-99q1 -51 -7 -76t-46 -88l-533 -872h519q69 2 67 -67v-196q2 -69 -67 -67h-849q-69 -2 -67 67v102zM762 1944q18 0 38 -32l90 -137q13 -19 13 -39t-35 -35l-221 -92
q-39 -16 -59 -16t-57 15l-215 82q-35 14 -35 40q0 15 12 33l88 136q21 32 39 32t37 -7l130 -48l137 59q20 9 38 9z" />
    <glyph glyph-name="zcaron" unicode="&#x17e;" horiz-adv-x="874" 
d="M600 1534q18 0 38 -31l90 -138q13 -19 13 -31q0 -28 -35 -42l-221 -92q-41 -17 -59 -17t-57 15l-215 83q-35 13 -35 40q0 14 12 32l88 136q21 32 39 32t37 -7l130 -47l137 58q20 9 38 9zM794 873q0 -51 -10 -76t-41 -70l-289 -416h273q69 2 67 -67v-177q2 -69 -67 -67
h-595q-69 -2 -67 67v98q1 53 11 79t40 68l283 403h-267q-69 -2 -67 67v175q-2 69 67 67h595q69 2 67 -67v-84z" />
    <glyph glyph-name="florin" unicode="&#x192;" horiz-adv-x="973" 
d="M577 739v-695q-2 -160 -81 -232t-205 -74h-220q-69 -2 -67 67v145q-2 69 67 67h109q83 -1 84 68v654h-144q-69 -2 -67 67v151q-2 69 67 67h144v90q2 160 81 232t205 73h225q69 2 67 -67v-145q2 -69 -67 -67h-114q-83 0 -84 -67v-49h251q69 2 67 -67v-151q2 -69 -67 -67
h-251z" />
    <glyph glyph-name="circumflex" unicode="&#x2c6;" horiz-adv-x="815" 
d="M228 1197q-18 0 -40 32l-88 136q-12 18 -12 33q0 25 35 39l216 83q36 14 57 14t58 -16l221 -92q35 -14 35 -42q0 -12 -13 -31l-91 -136q-21 -31 -39 -31t-38 9l-134 59l-130 -50q-19 -7 -37 -7z" />
    <glyph glyph-name="caron" unicode="&#x2c7;" horiz-adv-x="813" 
d="M569 1534q18 0 39 -31l90 -138q12 -18 12 -31q0 -28 -35 -42l-221 -92q-40 -17 -58 -17t-57 15l-216 83q-35 14 -35 39q0 15 12 33l89 136q21 32 39 32t37 -7l130 -47l136 58q20 9 38 9z" />
    <glyph glyph-name="uni02C9" unicode="&#x2c9;" horiz-adv-x="877" 
d="M156 1473h545q61 2 59 -58v-152q2 -59 -59 -58h-545q-60 -2 -58 58v152q-2 60 58 58z" />
    <glyph glyph-name="breve" unicode="&#x2d8;" horiz-adv-x="860" 
d="M240 1518q19 0 51 -30q63 -59 115 -59q52 -1 77 17t41 36l24 25q17 15 35 15t40 -18l125 -105q25 -21 25 -45t-35 -61q-128 -132 -321 -132q-147 0 -257 75t-110 123q0 23 27 45l123 97q21 17 40 17z" />
    <glyph glyph-name="dotaccent" unicode="&#x2d9;" horiz-adv-x="506" 
d="M90 1347.5q0 67.5 44 111.5t108 44q66 -1 110 -45t45 -110q0 -66 -44 -108q-45 -44 -111 -44t-109 42t-43 109.5z" />
    <glyph glyph-name="ring" unicode="&#x2da;" horiz-adv-x="631" 
d="M409 1348q0 40 -30 72q-30 30 -71 30t-71 -30t-30 -72t29 -71q30 -29 72 -29t72 30q29 30 29 70zM92 1348q0 92 62 154t154 63q92 0 154 -62q62 -63 62 -155t-63 -154t-154 -62.5t-153 62t-62 154.5z" />
    <glyph glyph-name="ogonek" unicode="&#x2db;" horiz-adv-x="612" 
d="M324 -196q0 -52 46 -52q27 0 62 12t39 14q3 0 7 2t9 2q23 0 23 -28v-67q0 -41 -32 -59q-95 -54 -189 -54q-93 0 -147 54t-54 131q0 111 114 210q52 46 122 78h149l10 -39q-59 -34 -109 -94q-50 -58 -50 -110z" />
    <glyph glyph-name="tilde" unicode="&#x2dc;" horiz-adv-x="909" 
d="M96 1176v213q0 68 52 93q80 38 142 38t146 -24t114 -24q68 0 187 67q16 9 25 9q31 0 31 -38v-154q1 -51 -43 -84q-96 -70 -158 -70t-156 26q-92 26 -127 26q-103 0 -181 -92q-6 -8 -15 -8q-17 0 -17 22z" />
    <glyph glyph-name="hungarumlaut" unicode="&#x2dd;" horiz-adv-x="1227" 
d="M982 1569q28 0 45 -38l65 -144q9 -20 9 -32q0 -28 -39 -44l-274 -113q-20 -8 -38 -8t-39 32l-85 136q-12 20 -12 40t35 35l302 128q19 8 31 8zM472 1569q28 0 45 -38l65 -144q9 -20 9 -32q0 -28 -39 -44l-274 -113q-20 -8 -38 -8t-39 32l-85 136q-12 20 -12 40t35 35
l302 128q19 8 31 8z" />
    <glyph glyph-name="anoteleia" unicode="&#x387;" horiz-adv-x="465" 
d="M234 900q60 0 96 -48q35 -48 35 -99q-1 -52 -39 -90t-98 -38q-60 1 -99 39t-39 95t42 99t102 42z" />
    <glyph glyph-name="uni2011" unicode="&#x2011;" horiz-adv-x="879" 
d="M165 719h532q69 2 67 -67v-136q2 -69 -67 -67h-532q-69 -2 -67 67v136q-2 69 67 67z" />
    <glyph glyph-name="figuredash" unicode="&#x2012;" horiz-adv-x="1257" 
d="M169 719h892q69 2 67 -67v-136q2 -69 -67 -67h-892q-69 -2 -67 67v136q-2 69 67 67z" />
    <glyph glyph-name="endash" unicode="&#x2013;" horiz-adv-x="1257" 
d="M169 719h892q69 2 67 -67v-136q2 -69 -67 -67h-892q-69 -2 -67 67v136q-2 69 67 67z" />
    <glyph glyph-name="emdash" unicode="&#x2014;" horiz-adv-x="1618" 
d="M175 719h1234q69 2 67 -67v-136q2 -69 -67 -67h-1234q-69 -2 -67 67v136q-2 69 67 67z" />
    <glyph glyph-name="afii00208" unicode="&#x2015;" horiz-adv-x="1618" 
d="M175 719h1234q69 2 67 -67v-136q2 -69 -67 -67h-1234q-69 -2 -67 67v136q-2 69 67 67z" />
    <glyph glyph-name="quoteleft" unicode="&#x2018;" horiz-adv-x="461" 
d="M121 1513h149q63 2 68 -62l27 -284q1 -9 1 -16q0 -42 -52 -48l-90 -10q-8 -1 -16 -1q-37 0 -50 46l-88 308q-4 15 -4 25q0 42 55 42z" />
    <glyph glyph-name="quoteright" unicode="&#x2019;" horiz-adv-x="461" 
d="M307 1513q55 0 55 -42q0 -9 -4 -25l-88 -308q-13 -46 -50 -46q-8 0 -17 1l-89 10q-52 6 -52 49q0 8 1 15l27 284q5 64 68 62h149z" />
    <glyph glyph-name="quotesinglbase" unicode="&#x201a;" horiz-adv-x="461" 
d="M307 276q55 0 55 -42q0 -10 -4 -25l-88 -309q-13 -45 -50 -45q-9 0 -17 1l-89 10q-52 6 -52 49q0 8 1 15l27 284q5 63 68 62h149z" />
    <glyph glyph-name="quotedblleft" unicode="&#x201c;" horiz-adv-x="791" 
d="M432 1513h147q63 2 68 -62l27 -284q1 -6 1 -13q0 -45 -52 -51l-87 -10q-10 -1 -18 -1q-36 0 -49 46l-88 308q-4 16 -4 25q0 42 55 42zM125 1513h149q63 2 68 -62l27 -284q1 -9 1 -16q0 -42 -52 -48l-90 -10q-8 -1 -16 -1q-37 0 -50 46l-88 308q-4 15 -4 25q0 42 55 42z
" />
    <glyph glyph-name="quotedblright" unicode="&#x201d;" horiz-adv-x="791" 
d="M311 1513q55 0 55 -42q0 -9 -5 -25l-89 -309q-13 -45 -49 -45q-8 0 -17 1l-88 10q-52 6 -52 50q0 7 1 14l27 284q5 64 68 62h149zM616 1513q55 0 55 -42q0 -10 -4 -25l-88 -308q-13 -46 -49 -46q-8 0 -17 1l-87 10q-53 6 -53 48q0 7 1 16l27 284q5 64 69 62h146z" />
    <glyph glyph-name="quotedblbase" unicode="&#x201e;" horiz-adv-x="791" 
d="M311 276q55 0 55 -42q0 -9 -5 -25l-89 -309q-13 -45 -49 -45q-9 0 -17 1l-88 10q-52 6 -52 50q0 7 1 14l27 284q5 63 68 62h149zM616 276q55 0 55 -42q0 -11 -4 -25l-88 -308q-13 -46 -49 -46q-9 0 -17 1l-87 10q-53 6 -53 48q0 7 1 16l27 284q5 63 69 62h146z" />
    <glyph glyph-name="dagger" unicode="&#x2020;" horiz-adv-x="1376" 
d="M827 796v-1094q2 -69 -67 -67h-171q-69 -2 -67 67v1094h-367q-69 -2 -67 67v149q-2 69 67 67h367v365q-2 69 67 67h171q69 2 67 -67v-365h365q69 2 67 -67v-149q2 -69 -67 -67h-365z" />
    <glyph glyph-name="daggerdbl" unicode="&#x2021;" horiz-adv-x="1380" 
d="M829 420v-713q2 -69 -67 -67h-171q-69 -2 -67 67v713h-367q-69 -2 -67 67v149q-2 69 67 67h367v93h-367q-69 -2 -67 67v149q-2 69 67 67h367v367q-2 69 67 67h171q69 2 67 -67v-367h365q69 2 67 -67v-149q2 -69 -67 -67h-365v-93h365q69 2 67 -67v-149q2 -69 -67 -67
h-365z" />
    <glyph glyph-name="bullet" unicode="&#x2022;" horiz-adv-x="717" 
d="M92 610q0 106 76 182t182 76t182 -76t76 -182t-76 -182t-182 -76t-182 76t-76 182z" />
    <glyph glyph-name="ellipsis" unicode="&#x2026;" horiz-adv-x="1501" 
d="M1224 -8q-60 0 -100 40t-39 95q1 57 43 99t102 42t96 -48q35 -48 35 -100q0 -50 -38.5 -89t-98.5 -39zM740 267q60 0 96 -48q35 -48 35 -99q-1 -52 -39 -90t-98 -38t-98 38q-40 38 -40 96q0 57 42 99t102 42zM242 -8q-60 0 -98 40q-40 40 -40 95q0 57 42 99t103 42
t96 -48t35 -100q0 -50 -39 -89t-99 -39z" />
    <glyph glyph-name="perthousand" unicode="&#x2030;" horiz-adv-x="2660" 
d="M470 71q0 14 7 28l713 1392q12 26 26 26t30 -8l85 -42q26 -13 26 -27t-8 -29l-717 -1404q-12 -24 -27 -24t-28 8l-84 52q-23 14 -23 28zM2251.5 375q0.5 55 -39.5 95t-96 40t-95.5 -40t-39.5 -95t40 -95t95 -40t95 40t40.5 95zM1741 374q-1 154 109 266q110 110 266 110
t266 -110t110 -265t-110 -265t-266 -110t-265.5 110t-109.5 264zM355 1138q0 -54 39 -94q40 -40 96 -40t96 40t39 94q0 54 -39 94q-40 40 -96 40t-96 -39q-39 -40 -39 -95zM490 762q-155 0 -265 110t-110 264q-1 154 109 266t266 112t265.5 -111t109.5 -266t-110 -265
t-265 -110zM1499.5 375q0.5 55 -39.5 95t-96 40t-96 -40t-39.5 -95.5t39.5 -95.5q40 -39 96 -39t95.5 40t40 95zM1364 0q-156 0 -266 110t-111 264q0 154 110 266q111 110 267 110t266 -110t109.5 -265t-110 -265t-265.5 -110z" />
    <glyph glyph-name="guilsinglleft" unicode="&#x2039;" horiz-adv-x="655" 
d="M557 283q0 -26 -32 -49l-118 -86q-25 -17 -47 -17t-44 35l-214 341q-18 29 -18 48t19 48l221 345q22 33 44 33t45 -19l111 -91q29 -23 29 -45t-16 -46l-150 -225q77 -120 123 -183t47 -89z" />
    <glyph glyph-name="guilsinglright" unicode="&#x203a;" horiz-adv-x="655" 
d="M92 826q0 22 29 45l108 91q22 19 45 19t44 -33l223 -345q18 -28 18 -48t-18 -48l-212 -341q-23 -35 -45 -35t-46 17l-119 86q-33 24 -33 46t17 46l155 229l-150 225q-16 24 -16 46z" />
    <glyph glyph-name="fraction" unicode="&#x2044;" horiz-adv-x="1110" 
d="M57 24q0 14 8 29l794 1463q13 24 27 24t29 -8l75 -41q24 -15 24 -29t-8 -28l-793 -1461q-13 -25 -27 -25t-30 8l-74 41q-25 13 -25 27z" />
    <glyph glyph-name="Euro" unicode="&#x20ac;" horiz-adv-x="1233" 
d="M704 313q51 -1 93 33t63 34t46 -24l148 -140q26 -24 26 -54t-55 -69q-153 -109 -328 -109q-59 0 -123 16q-160 41 -258 153l-14 17q-101 120 -123 280h-44q-69 -2 -67 67v130q-2 66 65 67l44 2v63h-42q-69 -2 -67 67v132q-2 67 65 67l46 2q29 194 141 317
q148 164 371 164q190 0 345 -118q48 -36 48 -66t-27 -53l-150 -137q-27 -23 -47 -23t-62 35t-101 35q-152 0 -189 -146l-2 -8h294q69 2 67 -67v-134q2 -69 -67 -67h-298v-61h300q69 2 67 -67v-140q2 -69 -67 -67h-289q27 -83 109 -118q31 -13 82 -13z" />
    <glyph glyph-name="trademark" unicode="&#x2122;" horiz-adv-x="1774" 
d="M974 1082v-436q2 -60 -58 -58h-105q-60 -2 -58 58v811q-2 61 58 59h156q50 1 67 -47l188 -535l190 535q16 48 67 47h158q60 2 58 -59v-813q2 -60 -58 -58h-97q-60 -2 -58 58v464l-164 -475q-15 -48 -66 -47h-51q-51 -1 -67 47zM516 1301v-659q2 -60 -58 -58h-99
q-60 -2 -58 58v659h-138q-61 -2 -59 58v99q-2 60 59 58h493q60 2 58 -58v-99q2 -60 -58 -58h-140z" />
    <glyph glyph-name="minus" unicode="&#x2212;" horiz-adv-x="1167" 
d="M169 659h806q69 2 67 -67v-136q2 -69 -67 -67h-806q-69 -2 -67 67v136q-2 69 67 67z" />
    <glyph glyph-name="dotmath" unicode="&#x22c5;" horiz-adv-x="465" 
d="M234 900q60 0 96 -48q35 -48 35 -99q-1 -52 -39 -90t-98 -38q-60 1 -99 39t-39 95t42 99t102 42z" />
    <glyph glyph-name="glyph98" 
 />
    <glyph glyph-name="glyph99" 
 />
    <glyph glyph-name="glyph100" 
 />
    <glyph glyph-name="glyph101" 
 />
    <glyph glyph-name="glyph102" 
 />
    <glyph glyph-name="glyph103" 
 />
    <glyph glyph-name="glyph104" 
 />
    <glyph glyph-name="glyph105" 
 />
    <glyph glyph-name="glyph106" 
 />
    <glyph glyph-name="glyph107" 
 />
    <glyph glyph-name="glyph108" 
 />
    <glyph glyph-name="glyph109" 
 />
    <glyph glyph-name="glyph110" 
 />
    <glyph glyph-name="glyph111" 
 />
    <glyph glyph-name="glyph112" 
 />
    <glyph glyph-name="glyph113" 
 />
    <glyph glyph-name="glyph114" 
 />
    <glyph glyph-name="glyph115" 
 />
    <glyph glyph-name="glyph116" 
 />
    <glyph glyph-name="glyph117" 
 />
    <glyph glyph-name="glyph118" 
 />
    <glyph glyph-name="glyph119" 
 />
    <glyph glyph-name="glyph120" 
 />
    <glyph glyph-name="glyph121" 
 />
    <glyph glyph-name="glyph122" 
 />
    <glyph glyph-name="glyph123" 
 />
    <glyph glyph-name="glyph124" 
 />
    <glyph glyph-name="glyph125" 
 />
    <glyph glyph-name="glyph126" 
 />
    <glyph glyph-name="glyph127" 
 />
    <glyph glyph-name="glyph128" 
 />
    <glyph glyph-name="glyph129" 
 />
    <glyph glyph-name="glyph130" 
 />
    <glyph glyph-name="glyph146" 
 />
    <glyph glyph-name="glyph151" 
 />
    <glyph glyph-name="glyph160" 
 />
    <glyph glyph-name="glyph162" 
 />
    <glyph glyph-name="glyph171" 
 />
    <glyph glyph-name="glyph174" 
 />
    <glyph glyph-name="glyph179" 
 />
    <glyph glyph-name="glyph180" 
 />
    <glyph glyph-name="glyph181" 
 />
    <glyph glyph-name="glyph182" 
 />
    <glyph glyph-name="glyph183" 
 />
    <glyph glyph-name="glyph184" 
 />
    <glyph glyph-name="glyph185" 
 />
    <glyph glyph-name="glyph186" 
 />
    <glyph glyph-name="glyph187" 
 />
    <glyph glyph-name="glyph188" 
 />
    <glyph glyph-name="glyph189" 
 />
    <glyph glyph-name="glyph190" 
 />
    <glyph glyph-name="glyph191" 
 />
    <glyph glyph-name="glyph192" 
 />
    <glyph glyph-name="glyph193" 
 />
    <glyph glyph-name="glyph194" 
 />
    <glyph glyph-name="glyph196" 
 />
    <glyph glyph-name="glyph198" 
 />
    <glyph glyph-name="glyph199" 
 />
    <glyph glyph-name="glyph200" 
 />
    <glyph glyph-name="glyph201" 
 />
    <glyph glyph-name="glyph206" 
 />
    <glyph glyph-name="glyph207" 
 />
    <glyph glyph-name="glyph208" 
 />
    <glyph glyph-name="glyph209" 
 />
    <glyph glyph-name="glyph210" 
 />
    <glyph glyph-name="glyph212" 
 />
    <glyph glyph-name="glyph213" 
 />
    <glyph glyph-name="glyph214" 
 />
    <glyph glyph-name="glyph216" 
 />
    <glyph glyph-name="glyph217" 
 />
    <glyph glyph-name="glyph222" 
 />
    <glyph glyph-name="glyph223" 
 />
    <glyph glyph-name="glyph224" 
 />
    <glyph glyph-name="glyph225" 
 />
    <glyph glyph-name="glyph315" 
 />
    </font>
</defs>
</svg>
