<?xml version="1.0" encoding="utf-8"?>
<!-- Generator: Adobe Illustrator 16.0.4, SVG Export Plug-In . SVG Version: 6.00 Build 0)  -->
<!DOCTYPE svg PUBLIC "-//W3C//DTD SVG 1.1//EN" "http://www.w3.org/Graphics/SVG/1.1/DTD/svg11.dtd">
<svg version="1.1" id="Layer_1" xmlns="http://www.w3.org/2000/svg" xmlns:xlink="http://www.w3.org/1999/xlink" x="0px" y="0px"
	 width="482px" height="182.074px" viewBox="0 0 482 182.074" enable-background="new 0 0 482 182.074" xml:space="preserve">
<path fill="#4B4EFF" d="M158.697,32.424c0.303-0.629,0.438-1.709-0.408-3.436c-1.54-3.14,1.112-4.395,2.683-4.139
	c1.318,0.213,2.416,2.211,5.53,0.932c0.742-0.307,4.272,0.994,5.048,0.683c3.318-1.337-0.544,3.854-0.544,3.854l-0.136,5.297
	l-5.133,0.871l-6.926-3C158.812,33.487,158.439,32.956,158.697,32.424z"/>
<path fill="none" stroke="#4B4EFF" stroke-width="25" stroke-linecap="round" stroke-linejoin="round" stroke-miterlimit="10" d="
	M83.311,42.819c0,0-29.645-5.033-29.494,20.294c0.139,23.201,37.518,34.289,27.918,56.811c-7.598,17.824-34.549,11.617-44.734,7.438
	"/>
<path fill="none" stroke="#4B4EFF" stroke-width="24.593" stroke-linecap="round" stroke-linejoin="round" stroke-miterlimit="10" d="
	M150.757,65.805c0,0-27.49-2.757-30.943,6.691c-3.454,9.448-19.653,68.038,2.814,73.161c8.573,1.953,18.018,3.115,22.832,3.186"/>
<line fill="none" stroke="#4B4EFF" stroke-width="24.593" stroke-linecap="round" stroke-linejoin="round" stroke-miterlimit="10" x1="114.111" y1="104.595" x2="142.511" y2="107.308"/>
<line fill="none" stroke="#4B4EFF" stroke-width="28.6454" stroke-linecap="round" stroke-linejoin="round" stroke-miterlimit="10" x1="215.774" y1="96.755" x2="236.867" y2="126.859"/>
<line fill="none" stroke="#4B4EFF" stroke-width="28.6454" stroke-linecap="round" stroke-linejoin="round" stroke-miterlimit="10" x1="171.266" y1="39.303" x2="191.63" y2="68.368"/>
<line fill="none" stroke="#4B4EFF" stroke-width="28.6454" stroke-linecap="round" stroke-linejoin="round" stroke-miterlimit="10" x1="193.667" y1="92.881" x2="170.422" y2="125.511"/>
<line fill="none" stroke="#4B4EFF" stroke-width="28.6454" stroke-linecap="round" stroke-linejoin="round" stroke-miterlimit="10" x1="230.644" y1="36.737" x2="211.911" y2="70.293"/>
<path fill="#4B4EFF" d="M243.142,138.522c0,0,1.021,7.287,2.373,7.053s1.727-4.385,3.584-3.4c1.857,0.986,3.104-0.461,3.387-0.992
	c0.283-0.531-0.075-2.289,1.139-2.393c1.211-0.102,2.173-0.885,1.536-2.246c-0.639-1.359-9.183-3.73-9.183-3.73"/>
<rect x="195.323" y="75.261" transform="matrix(0.9997 0.0256 -0.0256 0.9997 2.1693 -5.1607)" fill="#4B4EFF" width="14.609" height="13.751"/>
<g>
	<path fill="none" stroke="#FFFFFF" stroke-width="3" stroke-linecap="round" stroke-miterlimit="10" d="M206.034,97.058
		c-0.028-2.299,0.496-4.584,1.537-6.647"/>
</g>
<g>
	<path fill="none" stroke="#FFFFFF" stroke-width="3" stroke-linecap="round" stroke-miterlimit="10" d="M162.046,34.553
		c0.129-0.477,0.281-0.947,0.457-1.41"/>
	<path fill="none" stroke="#FFFFFF" stroke-width="3" stroke-linecap="round" stroke-miterlimit="10" d="M169.417,54.017
		l-5.271-7.522c-1.693-2.418-2.536-5.178-2.59-7.923"/>
</g>
<g>
	<path fill="none" stroke="#FFFFFF" stroke-width="3" stroke-linecap="round" stroke-miterlimit="10" d="M162.452,131.021
		c-2.339-4.602-2.102-10.314,1.102-14.811l3.686-5.174"/>
</g>
<g>
	<path fill="none" stroke="#FFFFFF" stroke-width="3" stroke-linecap="round" stroke-miterlimit="10" d="M206.972,81.014
		c-4.614-4.193-5.86-10.709-3.576-16.147"/>
</g>
<g>
	<path fill="none" stroke="#FFFFFF" stroke-width="3" stroke-linecap="round" stroke-miterlimit="10" d="M46.07,53.818
		c0.066-0.42,0.138-0.831,0.216-1.236"/>
	<path fill="none" stroke="#FFFFFF" stroke-width="3" stroke-linecap="round" stroke-miterlimit="10" d="M53.266,82.323
		c-4.34-6.17-7.605-13.367-7.658-22.06"/>
</g>
<g>
	<path fill="none" stroke="#FFFFFF" stroke-width="3" stroke-linecap="round" stroke-miterlimit="10" d="M111.934,71.237
		c1.214-3.321,3.263-6.103,6.132-8.337"/>
	<path fill="none" stroke="#FFFFFF" stroke-width="3" stroke-linecap="round" stroke-miterlimit="10" d="M122.729,60.078
		c0.369-0.173,0.745-0.34,1.13-0.502"/>
</g>
<g>
	<path fill="none" stroke="#FFFFFF" stroke-width="3" stroke-linecap="round" stroke-miterlimit="10" d="M31.834,120.369
		c2.586-2.086,4.998-3.039,11.219-0.656"/>
</g>
<path fill="none" stroke="#4B4EFF" stroke-width="26.6382" stroke-linecap="round" stroke-linejoin="round" stroke-miterlimit="10" d="
	M262.137,40.219c0,0-9.203,82.073,24.83,83.212S312,37.543,312,37.543"/>
<path fill="none" stroke="#4B4EFF" stroke-width="25" stroke-linecap="round" stroke-linejoin="round" stroke-miterlimit="10" d="
	M345.168,95.14c0,0-3.113-53.547,2.927-59.134c19.201-17.759,55.865,21.458,3.627,34.178"/>
<line fill="none" stroke="#4B4EFF" stroke-width="25" stroke-linecap="round" stroke-linejoin="round" stroke-miterlimit="10" x1="365.058" y1="65.546" x2="379.519" y2="94.437"/>
<path fill="none" stroke="#4B4EFF" stroke-width="25" stroke-linecap="round" stroke-linejoin="round" stroke-miterlimit="10" d="
	M409.45,30.5c0,0-4.741,56.517,8.734,61.366c3.368,1.212,12.022-0.223,14.328-0.288"/>
<path fill="none" stroke="#4B4EFF" stroke-width="25" stroke-linecap="round" stroke-linejoin="round" stroke-miterlimit="10" d="
	M339.082,129.511c0,0,61.27-11.971,95.23-6.963"/>
<g>
	<path fill="none" stroke="#FFFFFF" stroke-width="3" stroke-linecap="round" stroke-miterlimit="10" d="M258.29,34.7
		c0.488-0.629,1.032-1.213,1.624-1.744"/>
	<path fill="none" stroke="#FFFFFF" stroke-width="3" stroke-linecap="round" stroke-miterlimit="10" d="M255.739,52.193
		c-0.259-5.534-0.247-9.099-0.245-9.396c0.007-1.22,0.178-2.399,0.49-3.521"/>
</g>
<g>
	<path fill="none" stroke="#FFFFFF" stroke-width="3" stroke-linecap="round" stroke-miterlimit="10" d="M294.779,109.412
		c2.174-2.525,4.243-6.029,6.172-10.174"/>
</g>
<g>
	<path fill="none" stroke="#FFFFFF" stroke-width="3" stroke-linecap="round" stroke-miterlimit="10" d="M151.146,144.161
		c0.095,0.092,0.188,0.184,0.279,0.279"/>
	<path fill="none" stroke="#FFFFFF" stroke-width="3" stroke-linecap="round" stroke-miterlimit="10" d="M142.781,140.712
		c1.835,0.027,3.571,0.453,5.124,1.197"/>
</g>
<path fill="none" stroke="#FFFFFF" stroke-width="3" stroke-linecap="round" stroke-miterlimit="10" d="M342.421,32.899
	c-2.166,3.082-3.656,7.603-4.339,15.873 M348.834,27c-0.905,0.602-1.785,1.258-2.637,1.968"/>
<g>
	<path fill="none" stroke="#FFFFFF" stroke-width="3" stroke-linecap="round" stroke-miterlimit="10" d="M367.188,52.82
		c0.688-0.672,1.283-1.308,1.338-1.45"/>
</g>
<path fill="none" stroke="#4B4EFF" stroke-width="25" stroke-linecap="round" stroke-linejoin="round" stroke-miterlimit="10" d="
	M409.45,30.5c0,0-4.741,56.517,8.734,61.366c3.368,1.212,12.022-0.223,14.328-0.288"/>
<path fill="none" stroke="#FFFFFF" stroke-width="3" stroke-linecap="round" stroke-miterlimit="10" d="M400.971,29.671
	c-0.702,1.892-1.111,4.135-1.117,7.065 M403.354,24.207c-0.317,0.401-0.627,0.813-0.927,1.235"/>
<path fill="none" stroke="#FFFFFF" stroke-width="3" stroke-linecap="round" stroke-miterlimit="10" d="M330.691,128.626
	c0.592-1.908,2.013-4.238,5.275-6.201"/>
<path fill="none" stroke="#FFFFFF" stroke-width="3" stroke-linecap="round" stroke-miterlimit="10" d="M344.458,120.312
	c0,0,12.972-2.371,29.336-4.674"/>
</svg>
